# MagicaVoxel @ Ephtracy

# group
o 

# material
mtllib Oak.mtl
usemtl palette

# normals
vn -1 0 0
vn 1 0 0
vn 0 0 1
vn 0 0 -1
vn 0 -1 0
vn 0 1 0

# texcoords
vt 0.0644531 0.5
vt 0.224609 0.5
vt 0.228516 0.5
vt 0.396484 0.5
vt 0.865234 0.5

# verts
v -0.7 0 0.2
v -0.7 0 0.1
v -0.7 0 0
v -0.7 0 -0.3
v -0.7 0 -0.4
v -0.7 0 -0.6
v -0.7 0.1 0.2
v -0.7 0.1 0.1
v -0.7 0.1 0
v -0.7 0.1 -0.3
v -0.7 0.1 -0.4
v -0.7 0.1 -0.6
v -0.6 0 0.3
v -0.6 0 0.2
v -0.6 0 0.1
v -0.6 0 0
v -0.6 0 -0.3
v -0.6 0 -0.4
v -0.6 0 -0.6
v -0.6 0 -0.8
v -0.6 0.1 0.3
v -0.6 0.1 0.2
v -0.6 0.1 0.1
v -0.6 0.1 0
v -0.6 0.1 -0.2
v -0.6 0.1 -0.3
v -0.6 0.1 -0.4
v -0.6 0.1 -0.5
v -0.6 0.1 -0.6
v -0.6 0.1 -0.8
v -0.6 0.2 0.2
v -0.6 0.2 0
v -0.6 0.2 -0.2
v -0.6 0.2 -0.3
v -0.6 0.2 -0.5
v -0.6 0.2 -0.6
v -0.5 0 0.4
v -0.5 0 0.3
v -0.5 0.1 0.4
v -0.5 0.1 0.3
v -0.5 0.1 0.2
v -0.5 0.1 -0.3
v -0.5 0.1 -0.5
v -0.5 0.2 0.3
v -0.5 0.2 0.2
v -0.5 0.2 0.1
v -0.5 0.2 0
v -0.5 0.2 -0.2
v -0.5 0.2 -0.3
v -0.5 0.2 -0.5
v -0.5 0.3 0.1
v -0.5 0.3 0
v -0.5 0.3 -0.2
v -0.5 0.3 -0.5
v -0.4 0 -0.8
v -0.4 0 -0.9
v -0.4 0.1 0
v -0.4 0.1 -0.2
v -0.4 0.1 -0.6
v -0.4 0.1 -0.8
v -0.4 0.1 -0.9
v -0.4 0.2 0.2
v -0.4 0.2 0.1
v -0.4 0.2 -0.5
v -0.4 0.2 -0.6
v -0.4 0.2 -0.7
v -0.4 0.2 -0.8
v -0.4 0.3 0.2
v -0.4 0.3 0.1
v -0.4 0.3 0
v -0.4 0.3 -0.2
v -0.4 0.3 -0.5
v -0.4 0.3 -0.7
v -0.4 0.4 -0.4
v -0.4 0.4 -0.5
v -0.4 0.6 0
v -0.4 0.6 -0.4
v -0.3 0.3 0.1
v -0.3 0.3 0
v -0.3 0.3 -0.5
v -0.3 0.3 -0.6
v -0.3 0.4 -0.4
v -0.3 0.4 -0.5
v -0.3 0.4 -0.6
v -0.3 0.6 0.1
v -0.3 0.6 0
v -0.3 0.6 -0.4
v -0.3 0.6 -0.5
v -0.2 0.2 -0.6
v -0.2 0.2 -0.7
v -0.2 0.3 -0.6
v -0.2 0.3 -0.7
v -0.1 0 0.4
v -0.1 0 0.3
v -0.1 0 -0.7
v -0.1 0 -0.8
v -0.1 0.1 0.4
v -0.1 0.1 0.3
v -0.1 0.2 -0.7
v -0.1 0.2 -0.8
v 5.96046e-08 0 -0.8
v 5.96046e-08 0 -0.9
v 5.96046e-08 0.1 -0.8
v 5.96046e-08 0.1 -0.9
v 5.96046e-08 0.2 -0.6
v 5.96046e-08 0.2 -0.7
v 5.96046e-08 0.3 -0.6
v 5.96046e-08 0.3 -0.7
v 0.1 0.1 0.3
v 0.1 0.1 0.1
v 0.1 0.2 0.3
v 0.1 0.2 0.2
v 0.1 0.2 0.1
v 0.3 0 0.4
v 0.3 0 0.3
v 0.3 0.1 0.4
v 0.3 0.1 0.3
v -0.4 0 0.4
v -0.4 0 0.3
v -0.4 0.1 0.4
v -0.4 0.1 0.3
v -0.3 0 -0.7
v -0.3 0 -0.8
v -0.3 0.1 -0.8
v -0.3 0.2 -0.6
v -0.3 0.2 -0.7
v -0.3 0.2 -0.8
v -0.3 0.3 -0.6
v -0.3 0.3 -0.7
v -0.2 0 -0.8
v -0.2 0 -0.9
v -0.2 0.1 -0.8
v -0.2 0.1 -0.9
v -0.1 0.1 0.3
v -0.1 0.1 0.1
v -0.1 0.2 0.3
v -0.1 0.2 0.2
v -0.1 0.2 0.1
v -0.1 0.2 -0.6
v -0.1 0.2 -0.7
v -0.1 0.3 -0.6
v -0.1 0.3 -0.7
v 5.96046e-08 0.1 -0.7
v 5.96046e-08 0.1 -0.8
v 5.96046e-08 0.2 -0.7
v 5.96046e-08 0.2 -0.8
v 0.1 0 0.4
v 0.1 0 0.3
v 0.1 0.1 0.4
v 0.1 0.1 0.3
v 0.1 0.3 -0.5
v 0.1 0.3 -0.6
v 0.1 0.4 -0.5
v 0.1 0.4 -0.6
v 0.2 0 -0.8
v 0.2 0 -0.9
v 0.2 0.1 -0.8
v 0.2 0.1 -0.9
v 0.2 0.2 0.2
v 0.2 0.2 0.1
v 0.2 0.2 -0.6
v 0.2 0.2 -0.7
v 0.2 0.3 0.2
v 0.2 0.3 0.1
v 0.2 0.3 0
v 0.2 0.3 -0.4
v 0.2 0.3 -0.5
v 0.2 0.3 -0.6
v 0.2 0.3 -0.7
v 0.2 0.6 0.1
v 0.2 0.6 0
v 0.2 0.6 -0.4
v 0.2 0.6 -0.5
v 0.3 0 -0.7
v 0.3 0 -0.8
v 0.3 0.1 -0.4
v 0.3 0.1 -0.6
v 0.3 0.1 -0.7
v 0.3 0.1 -0.8
v 0.3 0.2 -0.6
v 0.3 0.3 0
v 0.3 0.3 -0.4
v 0.3 0.3 -0.6
v 0.3 0.6 0
v 0.3 0.6 -0.4
v 0.4 0 0.4
v 0.4 0 0.3
v 0.4 0 0.1
v 0.4 0 0
v 0.4 0.1 0.4
v 0.4 0.1 0.3
v 0.4 0.1 0.2
v 0.4 0.1 -0.6
v 0.4 0.1 -0.7
v 0.4 0.2 0.3
v 0.4 0.2 0.2
v 0.4 0.2 0.1
v 0.4 0.2 0
v 0.4 0.2 -0.4
v 0.4 0.2 -0.6
v 0.4 0.2 -0.7
v 0.4 0.3 0.1
v 0.4 0.3 -0.4
v 0.5 0 0.3
v 0.5 0 0.2
v 0.5 0 -0.2
v 0.5 0 -0.3
v 0.5 0 -0.6
v 0.5 0 -0.7
v 0.5 0.1 0.3
v 0.5 0.1 0.2
v 0.5 0.1 0.1
v 0.5 0.1 0
v 0.5 0.1 -0.2
v 0.5 0.1 -0.3
v 0.5 0.1 -0.4
v 0.5 0.1 -0.6
v 0.5 0.1 -0.7
v 0.5 0.2 0.2
v 0.5 0.2 0.1
v 0.5 0.2 0
v 0.5 0.2 -0.4
v 0.6 0 0.2
v 0.6 0 0.1
v 0.6 0 0
v 0.6 0 -0.2
v 0.6 0 -0.3
v 0.6 0 -0.6
v 0.6 0.1 0.2
v 0.6 0.1 0.1
v 0.6 0.1 0
v 0.6 0.1 -0.2
v 0.6 0.1 -0.3
v 0.6 0.1 -0.6
v -0.5 0 0.4
v -0.5 0.1 0.4
v -0.4 0 0.4
v -0.4 0.1 0.4
v -0.1 0 0.4
v -0.1 0.1 0.4
v 0.1 0 0.4
v 0.1 0.1 0.4
v 0.3 0 0.4
v 0.3 0.1 0.4
v 0.4 0 0.4
v 0.4 0.1 0.4
v -0.6 0 0.3
v -0.6 0.1 0.3
v -0.5 0 0.3
v -0.5 0.1 0.3
v -0.5 0.2 0.3
v -0.4 0 0.3
v -0.4 0.1 0.3
v -0.1 0 0.3
v -0.1 0.1 0.3
v -0.1 0.2 0.3
v 0.1 0 0.3
v 0.1 0.1 0.3
v 0.1 0.2 0.3
v 0.3 0 0.3
v 0.3 0.1 0.3
v 0.4 0 0.3
v 0.4 0.1 0.3
v 0.4 0.2 0.3
v 0.5 0 0.3
v 0.5 0.1 0.3
v -0.7 0 0.2
v -0.7 0.1 0.2
v -0.6 0 0.2
v -0.6 0.1 0.2
v -0.6 0.2 0.2
v -0.5 0.1 0.2
v -0.5 0.2 0.2
v -0.4 0.2 0.2
v -0.4 0.3 0.2
v -0.1 0.2 0.2
v 0.1 0.2 0.2
v 0.2 0.2 0.2
v 0.2 0.3 0.2
v 0.4 0.1 0.2
v 0.4 0.2 0.2
v 0.5 0 0.2
v 0.5 0.1 0.2
v 0.5 0.2 0.2
v 0.6 0 0.2
v 0.6 0.1 0.2
v -0.5 0.2 0.1
v -0.5 0.3 0.1
v -0.4 0.2 0.1
v -0.4 0.3 0.1
v -0.3 0.3 0.1
v -0.3 0.6 0.1
v -0.1 0.1 0.1
v -0.1 0.2 0.1
v 0.1 0.1 0.1
v 0.1 0.2 0.1
v 0.2 0.2 0.1
v 0.2 0.3 0.1
v 0.2 0.6 0.1
v 0.4 0.2 0.1
v 0.4 0.3 0.1
v -0.7 0 0
v -0.7 0.1 0
v -0.6 0 0
v -0.6 0.1 0
v -0.4 0.3 0
v -0.4 0.6 0
v -0.3 0.3 0
v -0.3 0.6 0
v 0.2 0.3 0
v 0.2 0.6 0
v 0.3 0.3 0
v 0.3 0.6 0
v 0.4 0 0
v 0.4 0.2 0
v 0.5 0.1 0
v 0.5 0.2 0
v 0.6 0 0
v 0.6 0.1 0
v -0.6 0.1 -0.2
v -0.6 0.2 -0.2
v -0.5 0.2 -0.2
v -0.5 0.3 -0.2
v -0.4 0.1 -0.2
v -0.4 0.3 -0.2
v 0.5 0 -0.3
v 0.5 0.1 -0.3
v 0.6 0 -0.3
v 0.6 0.1 -0.3
v -0.7 0 -0.4
v -0.7 0.1 -0.4
v -0.6 0 -0.4
v -0.6 0.1 -0.4
v -0.6 0.1 -0.5
v -0.6 0.2 -0.5
v -0.5 0.1 -0.5
v -0.5 0.2 -0.5
v 0.3 0.1 -0.6
v 0.3 0.2 -0.6
v 0.4 0.1 -0.6
v 0.4 0.2 -0.6
v -0.3 0 -0.8
v -0.3 0.1 -0.8
v -0.2 0 -0.8
v -0.2 0.1 -0.8
v -0.7 0 0.1
v -0.7 0.1 0.1
v -0.6 0 0.1
v -0.6 0.1 0.1
v 0.4 0 0.1
v 0.4 0.2 0.1
v 0.5 0.1 0.1
v 0.5 0.2 0.1
v 0.6 0 0.1
v 0.6 0.1 0.1
v -0.6 0.1 0
v -0.6 0.2 0
v -0.5 0.2 0
v -0.5 0.3 0
v -0.4 0.1 0
v -0.4 0.3 0
v 0.5 0 -0.2
v 0.5 0.1 -0.2
v 0.6 0 -0.2
v 0.6 0.1 -0.2
v -0.7 0 -0.3
v -0.7 0.1 -0.3
v -0.6 0 -0.3
v -0.6 0.1 -0.3
v -0.6 0.2 -0.3
v -0.5 0.1 -0.3
v -0.5 0.2 -0.3
v -0.4 0.4 -0.4
v -0.4 0.6 -0.4
v -0.3 0.4 -0.4
v -0.3 0.6 -0.4
v 0.2 0.3 -0.4
v 0.2 0.6 -0.4
v 0.3 0.1 -0.4
v 0.3 0.3 -0.4
v 0.3 0.6 -0.4
v 0.4 0.2 -0.4
v 0.4 0.3 -0.4
v 0.5 0.1 -0.4
v 0.5 0.2 -0.4
v -0.5 0.2 -0.5
v -0.5 0.3 -0.5
v -0.4 0.2 -0.5
v -0.4 0.3 -0.5
v -0.4 0.4 -0.5
v -0.3 0.3 -0.5
v -0.3 0.4 -0.5
v -0.3 0.6 -0.5
v 0.1 0.3 -0.5
v 0.1 0.4 -0.5
v 0.2 0.3 -0.5
v 0.2 0.6 -0.5
v -0.7 0 -0.6
v -0.7 0.1 -0.6
v -0.6 0 -0.6
v -0.6 0.1 -0.6
v -0.6 0.2 -0.6
v -0.4 0.1 -0.6
v -0.4 0.2 -0.6
v -0.3 0.2 -0.6
v -0.3 0.3 -0.6
v -0.3 0.4 -0.6
v -0.2 0.2 -0.6
v -0.2 0.3 -0.6
v -0.1 0.2 -0.6
v -0.1 0.3 -0.6
v 5.96046e-08 0.2 -0.6
v 5.96046e-08 0.3 -0.6
v 0.1 0.3 -0.6
v 0.1 0.4 -0.6
v 0.2 0.2 -0.6
v 0.2 0.3 -0.6
v 0.3 0.2 -0.6
v 0.3 0.3 -0.6
v 0.5 0 -0.6
v 0.5 0.1 -0.6
v 0.6 0 -0.6
v 0.6 0.1 -0.6
v -0.4 0.2 -0.7
v -0.4 0.3 -0.7
v -0.3 0 -0.7
v -0.3 0.2 -0.7
v -0.3 0.3 -0.7
v -0.2 0.2 -0.7
v -0.2 0.3 -0.7
v -0.1 0 -0.7
v -0.1 0.2 -0.7
v -0.1 0.3 -0.7
v 5.96046e-08 0.1 -0.7
v 5.96046e-08 0.2 -0.7
v 5.96046e-08 0.3 -0.7
v 0.2 0.2 -0.7
v 0.2 0.3 -0.7
v 0.3 0 -0.7
v 0.3 0.1 -0.7
v 0.4 0.1 -0.7
v 0.4 0.2 -0.7
v 0.5 0 -0.7
v 0.5 0.1 -0.7
v -0.6 0 -0.8
v -0.6 0.1 -0.8
v -0.4 0 -0.8
v -0.4 0.1 -0.8
v -0.4 0.2 -0.8
v -0.3 0.1 -0.8
v -0.3 0.2 -0.8
v -0.1 0 -0.8
v -0.1 0.2 -0.8
v 5.96046e-08 0 -0.8
v 5.96046e-08 0.1 -0.8
v 5.96046e-08 0.2 -0.8
v 0.2 0 -0.8
v 0.2 0.1 -0.8
v 0.3 0 -0.8
v 0.3 0.1 -0.8
v -0.4 0 -0.9
v -0.4 0.1 -0.9
v -0.2 0 -0.9
v -0.2 0.1 -0.9
v 5.96046e-08 0 -0.9
v 5.96046e-08 0.1 -0.9
v 0.2 0 -0.9
v 0.2 0.1 -0.9
v -0.5 0 0.4
v -0.4 0 0.4
v -0.1 0 0.4
v 0.1 0 0.4
v 0.3 0 0.4
v 0.4 0 0.4
v -0.6 0 0.3
v -0.5 0 0.3
v -0.4 0 0.3
v -0.1 0 0.3
v 0.1 0 0.3
v 0.3 0 0.3
v 0.4 0 0.3
v 0.5 0 0.3
v -0.7 0 0.2
v -0.6 0 0.2
v -0.3 0 0.2
v -0.2 0 0.2
v 0.5 0 0.2
v 0.6 0 0.2
v -0.7 0 0.1
v -0.6 0 0.1
v 0.4 0 0.1
v 0.6 0 0.1
v -0.7 0 0
v -0.6 0 0
v 0.4 0 0
v 0.6 0 0
v 0.5 0 -0.2
v 0.6 0 -0.2
v -0.7 0 -0.3
v -0.6 0 -0.3
v -0.3 0 -0.3
v -0.2 0 -0.3
v 0.5 0 -0.3
v 0.6 0 -0.3
v -0.7 0 -0.4
v -0.6 0 -0.4
v -0.7 0 -0.6
v -0.6 0 -0.6
v 0.5 0 -0.6
v 0.6 0 -0.6
v -0.3 0 -0.7
v -0.1 0 -0.7
v 0.3 0 -0.7
v 0.5 0 -0.7
v -0.6 0 -0.8
v -0.4 0 -0.8
v -0.3 0 -0.8
v -0.2 0 -0.8
v -0.1 0 -0.8
v 5.96046e-08 0 -0.8
v 0.2 0 -0.8
v 0.3 0 -0.8
v -0.4 0 -0.9
v -0.2 0 -0.9
v 5.96046e-08 0 -0.9
v 0.2 0 -0.9
v -0.1 0.2 0.2
v 0.1 0.2 0.2
v -0.1 0.2 0.1
v 0.1 0.2 0.1
v -0.5 0.1 0.4
v -0.4 0.1 0.4
v -0.1 0.1 0.4
v 0.1 0.1 0.4
v 0.3 0.1 0.4
v 0.4 0.1 0.4
v -0.6 0.1 0.3
v -0.5 0.1 0.3
v -0.4 0.1 0.3
v -0.1 0.1 0.3
v 0.1 0.1 0.3
v 0.3 0.1 0.3
v 0.4 0.1 0.3
v 0.5 0.1 0.3
v -0.7 0.1 0.2
v -0.6 0.1 0.2
v -0.5 0.1 0.2
v 0.4 0.1 0.2
v 0.5 0.1 0.2
v 0.6 0.1 0.2
v -0.7 0.1 0.1
v -0.6 0.1 0.1
v -0.1 0.1 0.1
v 0.1 0.1 0.1
v 0.5 0.1 0.1
v 0.6 0.1 0.1
v -0.7 0.1 0
v -0.6 0.1 0
v -0.4 0.1 0
v 0.5 0.1 0
v 0.6 0.1 0
v -0.6 0.1 -0.2
v -0.4 0.1 -0.2
v 0.5 0.1 -0.2
v 0.6 0.1 -0.2
v -0.7 0.1 -0.3
v -0.6 0.1 -0.3
v -0.5 0.1 -0.3
v 0.5 0.1 -0.3
v 0.6 0.1 -0.3
v -0.7 0.1 -0.4
v -0.6 0.1 -0.4
v 0.3 0.1 -0.4
v 0.5 0.1 -0.4
v -0.6 0.1 -0.5
v -0.5 0.1 -0.5
v -0.7 0.1 -0.6
v -0.6 0.1 -0.6
v -0.4 0.1 -0.6
v 0.3 0.1 -0.6
v 0.4 0.1 -0.6
v 0.5 0.1 -0.6
v 0.6 0.1 -0.6
v 5.96046e-08 0.1 -0.7
v 0.3 0.1 -0.7
v 0.4 0.1 -0.7
v 0.5 0.1 -0.7
v -0.6 0.1 -0.8
v -0.4 0.1 -0.8
v -0.3 0.1 -0.8
v -0.2 0.1 -0.8
v 5.96046e-08 0.1 -0.8
v 0.2 0.1 -0.8
v 0.3 0.1 -0.8
v -0.4 0.1 -0.9
v -0.2 0.1 -0.9
v 5.96046e-08 0.1 -0.9
v 0.2 0.1 -0.9
v -0.5 0.2 0.3
v -0.1 0.2 0.3
v 0.1 0.2 0.3
v 0.4 0.2 0.3
v -0.6 0.2 0.2
v -0.5 0.2 0.2
v -0.4 0.2 0.2
v -0.1 0.2 0.2
v 0.1 0.2 0.2
v 0.2 0.2 0.2
v 0.4 0.2 0.2
v 0.5 0.2 0.2
v -0.5 0.2 0.1
v -0.4 0.2 0.1
v 0.2 0.2 0.1
v 0.4 0.2 0.1
v 0.5 0.2 0.1
v -0.6 0.2 0
v -0.5 0.2 0
v 0.4 0.2 0
v 0.5 0.2 0
v -0.6 0.2 -0.2
v -0.5 0.2 -0.2
v -0.6 0.2 -0.3
v -0.5 0.2 -0.3
v 0.4 0.2 -0.4
v 0.5 0.2 -0.4
v -0.6 0.2 -0.5
v -0.5 0.2 -0.5
v -0.4 0.2 -0.5
v -0.6 0.2 -0.6
v -0.4 0.2 -0.6
v -0.3 0.2 -0.6
v -0.2 0.2 -0.6
v -0.1 0.2 -0.6
v 5.96046e-08 0.2 -0.6
v 0.2 0.2 -0.6
v 0.3 0.2 -0.6
v 0.4 0.2 -0.6
v -0.4 0.2 -0.7
v -0.3 0.2 -0.7
v -0.2 0.2 -0.7
v -0.1 0.2 -0.7
v 5.96046e-08 0.2 -0.7
v 0.2 0.2 -0.7
v 0.4 0.2 -0.7
v -0.4 0.2 -0.8
v -0.3 0.2 -0.8
v -0.1 0.2 -0.8
v 5.96046e-08 0.2 -0.8
v -0.4 0.3 0.2
v 0.2 0.3 0.2
v -0.5 0.3 0.1
v -0.4 0.3 0.1
v -0.3 0.3 0.1
v 0.2 0.3 0.1
v 0.4 0.3 0.1
v -0.5 0.3 0
v -0.4 0.3 0
v -0.3 0.3 0
v 0.2 0.3 0
v 0.3 0.3 0
v -0.5 0.3 -0.2
v -0.4 0.3 -0.2
v 0.2 0.3 -0.4
v 0.3 0.3 -0.4
v 0.4 0.3 -0.4
v -0.5 0.3 -0.5
v -0.4 0.3 -0.5
v -0.3 0.3 -0.5
v 0.1 0.3 -0.5
v 0.2 0.3 -0.5
v -0.3 0.3 -0.6
v -0.2 0.3 -0.6
v -0.1 0.3 -0.6
v 5.96046e-08 0.3 -0.6
v 0.1 0.3 -0.6
v 0.2 0.3 -0.6
v 0.3 0.3 -0.6
v -0.4 0.3 -0.7
v -0.3 0.3 -0.7
v -0.2 0.3 -0.7
v -0.1 0.3 -0.7
v 5.96046e-08 0.3 -0.7
v 0.2 0.3 -0.7
v -0.4 0.4 -0.4
v -0.3 0.4 -0.4
v -0.4 0.4 -0.5
v -0.3 0.4 -0.5
v 0.1 0.4 -0.5
v -0.3 0.4 -0.6
v 0.1 0.4 -0.6
v -0.3 0.6 0.1
v 0.2 0.6 0.1
v -0.4 0.6 0
v -0.3 0.6 0
v -0.2 0.6 0
v 0.2 0.6 0
v 0.3 0.6 0
v -0.3 0.6 -0.1
v -0.2 0.6 -0.1
v 5.96046e-08 0.6 -0.1
v 0.1 0.6 -0.1
v 5.96046e-08 0.6 -0.2
v 0.1 0.6 -0.2
v -0.2 0.6 -0.3
v -0.1 0.6 -0.3
v -0.4 0.6 -0.4
v -0.3 0.6 -0.4
v -0.2 0.6 -0.4
v -0.1 0.6 -0.4
v 0.2 0.6 -0.4
v 0.3 0.6 -0.4
v -0.3 0.6 -0.5
v 0.2 0.6 -0.5

# faces
f 7/5/1 2/5/1 1/5/1
f 8/5/1 2/5/1 7/5/1
f 9/5/1 4/5/1 3/5/1
f 10/5/1 4/5/1 9/5/1
f 11/5/1 6/5/1 5/5/1
f 12/5/1 6/5/1 11/5/1
f 21/5/1 14/5/1 13/5/1
f 22/5/1 14/5/1 21/5/1
f 23/5/1 16/5/1 15/5/1
f 24/5/1 16/5/1 23/5/1
f 26/5/1 18/5/1 17/5/1
f 27/5/1 18/5/1 26/5/1
f 29/5/1 20/5/1 19/5/1
f 30/5/1 20/5/1 29/5/1
f 31/5/1 24/5/1 23/5/1
f 31/5/1 23/5/1 22/5/1
f 32/5/1 24/5/1 31/5/1
f 33/5/1 26/5/1 25/5/1
f 34/5/1 26/5/1 33/5/1
f 35/5/1 29/5/1 28/5/1
f 36/5/1 29/5/1 35/5/1
f 39/5/1 38/5/1 37/5/1
f 40/5/1 38/5/1 39/5/1
f 44/5/1 41/5/1 40/5/1
f 45/5/1 41/5/1 44/5/1
f 49/5/1 43/5/1 42/5/1
f 50/5/1 43/5/1 49/5/1
f 51/5/1 47/5/1 46/5/1
f 52/5/1 47/5/1 51/5/1
f 53/5/1 50/5/1 49/5/1
f 53/5/1 49/5/1 48/5/1
f 54/5/1 50/5/1 53/5/1
f 60/5/1 56/5/1 55/5/1
f 61/5/1 56/5/1 60/5/1
f 65/5/1 60/5/1 59/5/1
f 66/5/1 60/5/1 65/5/1
f 67/5/1 60/5/1 66/5/1
f 68/5/1 63/5/1 62/5/1
f 69/5/1 63/5/1 68/5/1
f 70/5/1 58/5/1 57/5/1
f 71/5/1 58/5/1 70/5/1
f 72/5/1 65/5/1 64/5/1
f 72/5/1 66/5/1 65/5/1
f 73/5/1 66/5/1 72/5/1
f 74/5/1 71/5/1 70/5/1
f 74/5/1 72/5/1 71/5/1
f 75/5/1 72/5/1 74/5/1
f 76/5/1 74/5/1 70/5/1
f 77/5/1 74/5/1 76/5/1
f 83/5/1 81/5/1 80/5/1
f 84/5/1 81/5/1 83/5/1
f 85/5/1 79/5/1 78/5/1
f 86/5/1 79/5/1 85/5/1
f 87/5/1 83/5/1 82/5/1
f 88/5/1 83/5/1 87/5/1
f 91/5/1 90/5/1 89/5/1
f 92/5/1 90/5/1 91/5/1
f 97/5/1 94/5/1 93/5/1
f 98/5/1 94/5/1 97/5/1
f 99/5/1 96/5/1 95/5/1
f 100/5/1 96/5/1 99/5/1
f 103/5/1 102/5/1 101/5/1
f 104/5/1 102/5/1 103/5/1
f 107/5/1 106/5/1 105/5/1
f 108/5/1 106/5/1 107/5/1
f 111/5/1 110/5/1 109/5/1
f 112/5/1 110/5/1 111/5/1
f 113/5/1 110/5/1 112/5/1
f 116/5/1 115/5/1 114/5/1
f 117/5/1 115/5/1 116/5/1
f 118/5/2 119/5/2 120/5/2
f 120/5/2 119/5/2 121/5/2
f 122/5/2 123/5/2 124/5/2
f 122/5/2 124/5/2 126/5/2
f 126/5/2 124/5/2 127/5/2
f 125/5/2 126/5/2 128/5/2
f 128/5/2 126/5/2 129/5/2
f 130/5/2 131/5/2 132/5/2
f 132/5/2 131/5/2 133/5/2
f 134/5/2 135/5/2 136/5/2
f 136/5/2 135/5/2 137/5/2
f 137/5/2 135/5/2 138/5/2
f 139/5/2 140/5/2 141/5/2
f 141/5/2 140/5/2 142/5/2
f 143/5/2 144/5/2 145/5/2
f 145/5/2 144/5/2 146/5/2
f 147/5/2 148/5/2 149/5/2
f 149/5/2 148/5/2 150/5/2
f 151/5/2 152/5/2 153/5/2
f 153/5/2 152/5/2 154/5/2
f 155/5/2 156/5/2 157/5/2
f 157/5/2 156/5/2 158/5/2
f 159/5/2 160/5/2 163/5/2
f 163/5/2 160/5/2 164/5/2
f 161/5/2 162/5/2 168/5/2
f 168/5/2 162/5/2 169/5/2
f 164/5/2 165/5/2 170/5/2
f 170/5/2 165/5/2 171/5/2
f 166/5/2 167/5/2 172/5/2
f 172/5/2 167/5/2 173/5/2
f 174/5/2 175/5/2 178/5/2
f 178/5/2 175/5/2 179/5/2
f 176/5/2 177/5/2 180/5/2
f 176/5/2 180/5/2 182/5/2
f 182/5/2 180/5/2 183/5/2
f 181/5/2 182/5/2 184/5/2
f 184/5/2 182/5/2 185/5/2
f 186/5/2 187/5/2 190/5/2
f 190/5/2 187/5/2 191/5/2
f 191/5/2 192/5/2 195/5/2
f 195/5/2 192/5/2 196/5/2
f 188/5/2 189/5/2 197/5/2
f 197/5/2 189/5/2 198/5/2
f 193/5/2 194/5/2 200/5/2
f 200/5/2 194/5/2 201/5/2
f 198/5/2 199/5/2 202/5/2
f 197/5/2 198/5/2 202/5/2
f 202/5/2 199/5/2 203/5/2
f 204/5/2 205/5/2 210/5/2
f 210/5/2 205/5/2 211/5/2
f 206/5/2 207/5/2 214/5/2
f 214/5/2 207/5/2 215/5/2
f 208/5/2 209/5/2 217/5/2
f 217/5/2 209/5/2 218/5/2
f 211/5/2 212/5/2 219/5/2
f 219/5/2 212/5/2 220/5/2
f 215/5/2 216/5/2 221/5/2
f 213/5/2 214/5/2 221/5/2
f 214/5/2 215/5/2 221/5/2
f 221/5/2 216/5/2 222/5/2
f 223/5/2 224/5/2 229/5/2
f 229/5/2 224/5/2 230/5/2
f 225/5/2 226/5/2 231/5/2
f 231/5/2 226/5/2 232/5/2
f 227/5/2 228/5/2 233/5/2
f 233/5/2 228/5/2 234/5/2
f 237/5/3 236/5/3 235/5/3
f 238/5/3 236/5/3 237/5/3
f 241/5/3 240/5/3 239/5/3
f 242/5/3 240/5/3 241/5/3
f 245/5/3 244/5/3 243/5/3
f 246/5/3 244/5/3 245/5/3
f 249/5/3 248/5/3 247/5/3
f 250/5/3 248/5/3 249/5/3
f 253/5/3 251/5/3 250/5/3
f 254/5/3 253/5/3 252/5/3
f 255/5/3 251/5/3 253/5/3
f 255/5/3 253/5/3 254/5/3
f 256/5/3 251/5/3 255/5/3
f 260/5/3 258/5/3 257/5/3
f 260/5/3 259/5/3 258/5/3
f 261/5/3 259/5/3 260/5/3
f 263/5/3 259/5/3 261/5/3
f 264/5/3 259/5/3 263/5/3
f 265/5/3 263/5/3 262/5/3
f 266/5/3 263/5/3 265/5/3
f 269/5/3 268/5/3 267/5/3
f 270/5/3 268/5/3 269/5/3
f 272/5/3 271/5/3 270/5/3
f 273/5/3 271/5/3 272/5/3
f 276/5/3 275/5/3 274/5/3
f 277/5/3 275/5/3 276/5/3
f 278/5/3 275/5/3 277/5/3
f 279/5/3 275/5/3 278/5/3
f 283/5/3 281/5/3 280/5/3
f 284/5/3 281/5/3 283/5/3
f 285/5/3 283/5/3 282/5/3
f 286/5/3 283/5/3 285/5/3
f 289/5/3 288/5/3 287/5/3
f 290/5/3 288/5/3 289/5/3
f 295/5/3 294/5/3 293/5/3
f 296/5/3 294/5/3 295/5/3
f 298/5/3 292/5/3 291/5/3
f 299/5/3 292/5/3 298/5/3
f 300/5/3 298/5/3 297/5/3
f 301/5/3 298/5/3 300/5/3
f 304/5/3 303/5/3 302/5/3
f 305/5/3 303/5/3 304/5/3
f 308/5/3 307/5/3 306/5/3
f 309/5/3 307/5/3 308/5/3
f 312/5/3 311/5/3 310/5/3
f 313/5/3 311/5/3 312/5/3
f 316/5/3 315/5/3 314/5/3
f 317/5/3 315/5/3 316/5/3
f 318/5/3 316/5/3 314/5/3
f 319/5/3 316/5/3 318/5/3
f 322/5/3 321/5/3 320/5/3
f 324/5/3 322/5/3 320/5/3
f 324/5/3 323/5/3 322/5/3
f 325/5/3 323/5/3 324/5/3
f 328/5/3 327/5/3 326/5/3
f 329/5/3 327/5/3 328/5/3
f 332/5/3 331/5/3 330/5/3
f 333/5/3 331/5/3 332/5/3
f 336/5/3 335/5/3 334/5/3
f 337/5/3 335/5/3 336/5/3
f 340/5/3 339/5/3 338/5/3
f 341/5/3 339/5/3 340/5/3
f 344/5/3 343/5/3 342/5/3
f 345/5/3 343/5/3 344/5/3
f 346/5/4 347/5/4 348/5/4
f 348/5/4 347/5/4 349/5/4
f 350/5/4 351/5/4 352/5/4
f 352/5/4 351/5/4 353/5/4
f 350/5/4 352/5/4 354/5/4
f 354/5/4 352/5/4 355/5/4
f 356/5/4 357/5/4 358/5/4
f 356/5/4 358/5/4 360/5/4
f 358/5/4 359/5/4 360/5/4
f 360/5/4 359/5/4 361/5/4
f 362/5/4 363/5/4 364/5/4
f 364/5/4 363/5/4 365/5/4
f 366/5/4 367/5/4 368/5/4
f 368/5/4 367/5/4 369/5/4
f 369/5/4 370/5/4 371/5/4
f 371/5/4 370/5/4 372/5/4
f 373/5/4 374/5/4 375/5/4
f 375/5/4 374/5/4 376/5/4
f 377/5/4 378/5/4 380/5/4
f 380/5/4 378/5/4 381/5/4
f 379/5/4 380/5/4 382/5/4
f 382/5/4 380/5/4 383/5/4
f 379/5/4 382/5/4 384/5/4
f 384/5/4 382/5/4 385/5/4
f 386/5/4 387/5/4 388/5/4
f 388/5/4 387/5/4 389/5/4
f 389/5/4 390/5/4 391/5/4
f 391/5/4 390/5/4 392/5/4
f 392/5/4 393/5/4 395/5/4
f 394/5/4 395/5/4 396/5/4
f 395/5/4 393/5/4 397/5/4
f 396/5/4 395/5/4 397/5/4
f 398/5/4 399/5/4 400/5/4
f 400/5/4 399/5/4 401/5/4
f 401/5/4 402/5/4 403/5/4
f 403/5/4 402/5/4 404/5/4
f 405/5/4 406/5/4 408/5/4
f 406/5/4 407/5/4 408/5/4
f 408/5/4 407/5/4 409/5/4
f 409/5/4 407/5/4 411/5/4
f 410/5/4 411/5/4 412/5/4
f 411/5/4 407/5/4 413/5/4
f 412/5/4 411/5/4 413/5/4
f 413/5/4 407/5/4 414/5/4
f 414/5/4 407/5/4 415/5/4
f 416/5/4 417/5/4 418/5/4
f 418/5/4 417/5/4 419/5/4
f 420/5/4 421/5/4 422/5/4
f 422/5/4 421/5/4 423/5/4
f 424/5/4 425/5/4 427/5/4
f 427/5/4 425/5/4 428/5/4
f 426/5/4 427/5/4 429/5/4
f 426/5/4 429/5/4 431/5/4
f 429/5/4 430/5/4 431/5/4
f 431/5/4 430/5/4 432/5/4
f 432/5/4 430/5/4 433/5/4
f 434/5/4 435/5/4 437/5/4
f 435/5/4 436/5/4 437/5/4
f 437/5/4 436/5/4 438/5/4
f 434/5/4 437/5/4 440/5/4
f 440/5/4 437/5/4 441/5/4
f 439/5/4 440/5/4 441/5/4
f 441/5/4 437/5/4 442/5/4
f 439/5/4 441/5/4 443/5/4
f 443/5/4 441/5/4 444/5/4
f 445/5/4 446/5/4 447/5/4
f 447/5/4 446/5/4 448/5/4
f 448/5/4 449/5/4 450/5/4
f 450/5/4 449/5/4 451/5/4
f 452/5/4 453/5/4 454/5/4
f 454/5/4 453/5/4 455/5/4
f 455/5/4 453/5/4 456/5/4
f 457/5/4 458/5/4 459/5/4
f 459/5/4 458/5/4 460/5/4
f 461/5/4 462/5/4 463/5/4
f 463/5/4 462/5/4 464/5/4
f 465/5/4 466/5/4 467/5/4
f 467/5/4 466/5/4 468/5/4
f 476/5/5 470/5/5 469/5/5
f 477/5/5 470/5/5 476/5/5
f 478/5/5 472/5/5 471/5/5
f 479/5/5 472/5/5 478/5/5
f 480/5/5 474/5/5 473/5/5
f 481/5/5 474/5/5 480/5/5
f 484/5/5 479/5/5 478/5/5
f 484/5/5 482/5/5 481/5/5
f 484/5/5 481/5/5 480/5/5
f 484/5/5 480/5/5 479/5/5
f 484/5/5 477/5/5 476/5/5
f 484/5/5 478/5/5 477/5/5
f 484/5/5 476/5/5 475/5/5
f 485/5/5 482/5/5 484/5/5
f 486/5/5 482/5/5 485/5/5
f 487/5/5 482/5/5 486/5/5
f 489/5/5 484/5/5 483/5/5
f 489/5/5 485/5/5 484/5/5
f 490/5/5 485/5/5 489/5/5
f 491/5/5 488/5/5 487/5/5
f 491/5/5 487/5/5 486/5/5
f 492/5/5 488/5/5 491/5/5
f 494/5/5 485/5/5 490/5/5
f 495/5/5 491/5/5 486/5/5
f 497/5/5 496/5/5 495/5/5
f 498/5/5 496/5/5 497/5/5
f 499/5/5 494/5/5 493/5/5
f 500/5/5 485/5/5 494/5/5
f 500/5/5 494/5/5 499/5/5
f 501/4/5 486/4/5 485/4/5
f 501/5/5 485/5/5 500/5/5
f 502/5/5 495/5/5 486/5/5
f 502/4/5 486/4/5 501/4/5
f 502/5/5 497/5/5 495/5/5
f 503/5/5 497/5/5 502/5/5
f 506/5/5 504/5/5 503/5/5
f 506/5/5 503/5/5 502/5/5
f 506/5/5 502/5/5 501/5/5
f 506/5/5 501/5/5 500/5/5
f 507/5/5 506/5/5 505/5/5
f 508/5/5 504/5/5 506/5/5
f 508/5/5 506/5/5 507/5/5
f 509/5/5 504/5/5 508/5/5
f 510/5/5 504/5/5 509/5/5
f 511/5/5 509/5/5 508/5/5
f 512/5/5 509/5/5 511/5/5
f 513/5/5 509/5/5 512/5/5
f 514/5/5 509/5/5 513/5/5
f 515/5/5 511/5/5 508/5/5
f 516/5/5 511/5/5 515/5/5
f 517/5/5 511/5/5 516/5/5
f 519/5/5 513/5/5 512/5/5
f 520/5/5 513/5/5 519/5/5
f 521/5/5 513/5/5 520/5/5
f 522/5/5 513/5/5 521/5/5
f 523/5/5 518/5/5 517/5/5
f 523/5/5 517/5/5 516/5/5
f 524/5/5 518/5/5 523/5/5
f 525/5/5 521/5/5 520/5/5
f 526/5/5 521/5/5 525/5/5
f 529/5/5 528/5/5 527/5/5
f 530/5/5 528/5/5 529/5/5
f 531/5/6 532/5/6 538/5/6
f 538/5/6 532/5/6 539/5/6
f 533/5/6 534/5/6 540/5/6
f 540/5/6 534/5/6 541/5/6
f 535/5/6 536/5/6 542/5/6
f 542/5/6 536/5/6 543/5/6
f 537/5/6 538/5/6 546/5/6
f 546/5/6 538/5/6 547/5/6
f 543/5/6 544/5/6 548/5/6
f 548/5/6 544/5/6 549/5/6
f 545/5/6 546/5/6 551/5/6
f 551/5/6 546/5/6 552/5/6
f 540/5/6 541/5/6 553/5/6
f 553/5/6 541/5/6 554/5/6
f 549/5/6 550/5/6 555/5/6
f 555/5/6 550/5/6 556/5/6
f 557/5/6 558/5/6 562/5/6
f 558/5/6 559/5/6 562/5/6
f 562/5/6 559/5/6 563/5/6
f 560/5/6 561/5/6 564/5/6
f 564/5/6 561/5/6 565/5/6
f 557/5/6 562/5/6 566/5/6
f 566/5/6 562/5/6 567/5/6
f 567/5/6 568/5/6 572/5/6
f 569/5/6 570/5/6 574/5/6
f 571/5/6 572/5/6 575/5/6
f 572/5/6 568/5/6 575/5/6
f 575/5/6 568/5/6 576/5/6
f 571/5/6 575/5/6 577/5/6
f 577/5/6 575/5/6 578/5/6
f 573/5/6 574/5/6 580/5/6
f 580/5/6 574/5/6 581/5/6
f 574/5/6 570/5/6 582/5/6
f 581/5/6 574/5/6 582/5/6
f 582/5/6 570/5/6 583/5/6
f 581/5/6 582/5/6 586/5/6
f 586/5/6 582/5/6 587/5/6
f 578/5/6 579/5/6 588/5/6
f 588/5/6 579/5/6 589/5/6
f 584/5/6 585/5/6 592/5/6
f 592/5/6 585/5/6 593/5/6
f 593/5/6 585/5/6 594/5/6
f 590/5/6 591/5/6 595/5/6
f 589/5/6 590/5/6 595/5/6
f 595/5/6 591/5/6 596/5/6
f 592/5/6 593/5/6 597/5/6
f 597/5/6 593/5/6 598/5/6
f 599/5/6 600/5/6 604/5/6
f 604/5/6 600/5/6 605/5/6
f 605/5/6 600/5/6 606/5/6
f 601/5/6 602/5/6 607/5/6
f 607/5/6 602/5/6 608/5/6
f 608/5/6 602/5/6 609/5/6
f 603/5/6 604/5/6 611/5/6
f 604/5/6 605/5/6 611/5/6
f 611/5/6 605/5/6 612/5/6
f 609/5/6 610/5/6 613/5/6
f 608/5/6 609/5/6 613/5/6
f 613/5/6 610/5/6 614/5/6
f 614/5/6 610/5/6 615/5/6
f 603/5/6 611/5/6 616/5/6
f 616/5/6 611/5/6 617/5/6
f 620/5/6 621/5/6 622/5/6
f 622/5/6 621/5/6 623/5/6
f 618/5/6 619/5/6 624/5/6
f 624/5/6 619/5/6 625/5/6
f 626/5/6 627/5/6 629/5/6
f 627/5/6 628/5/6 629/5/6
f 629/5/6 628/5/6 630/5/6
f 631/5/6 632/5/6 639/5/6
f 639/5/6 632/5/6 640/5/6
f 633/5/6 634/5/6 641/5/6
f 641/5/6 634/5/6 642/5/6
f 636/5/6 637/5/6 643/5/6
f 635/5/6 636/5/6 643/5/6
f 643/5/6 637/5/6 644/5/6
f 638/5/6 639/5/6 645/5/6
f 645/5/6 639/5/6 646/5/6
f 641/5/6 642/5/6 647/5/6
f 647/5/6 642/5/6 648/5/6
f 649/5/6 650/5/6 652/5/6
f 652/5/6 650/5/6 653/5/6
f 653/5/6 650/5/6 654/5/6
f 651/5/6 652/5/6 656/5/6
f 652/5/6 653/5/6 656/5/6
f 656/5/6 653/5/6 657/5/6
f 657/5/6 653/5/6 658/5/6
f 654/5/6 655/5/6 659/5/6
f 659/5/6 655/5/6 660/5/6
f 660/5/6 655/5/6 664/5/6
f 664/5/6 655/5/6 665/5/6
f 661/5/6 662/5/6 666/5/6
f 666/5/6 662/5/6 667/5/6
f 663/5/6 664/5/6 670/5/6
f 667/5/6 668/5/6 671/5/6
f 669/5/6 670/5/6 675/5/6
f 670/5/6 664/5/6 676/5/6
f 675/5/6 670/5/6 676/5/6
f 676/5/6 664/5/6 677/5/6
f 667/5/6 671/5/6 678/5/6
f 678/5/6 671/5/6 679/5/6
f 672/5/6 673/5/6 680/5/6
f 680/5/6 673/5/6 681/5/6
f 674/5/6 675/5/6 682/5/6
f 675/5/6 676/5/6 682/5/6
f 682/5/6 676/5/6 683/5/6
f 684/5/6 685/5/6 686/5/6
f 686/5/6 685/5/6 687/5/6
f 687/5/6 688/5/6 689/5/6
f 689/5/6 688/5/6 690/5/6
f 691/5/6 692/5/6 694/5/6
f 694/5/6 692/5/6 695/5/6
f 695/5/6 692/5/6 696/5/6
f 693/5/6 694/5/6 698/5/6
f 694/2/6 695/2/6 698/2/6
f 695/3/6 696/3/6 699/3/6
f 698/2/6 695/2/6 699/2/6
f 699/3/6 696/3/6 700/3/6
f 700/3/6 696/3/6 701/3/6
f 698/3/6 699/3/6 702/3/6
f 699/3/6 700/3/6 702/3/6
f 700/2/6 701/2/6 702/2/6
f 701/3/6 696/3/6 703/3/6
f 702/2/6 701/2/6 703/2/6
f 698/3/6 702/3/6 704/3/6
f 702/3/6 703/3/6 704/3/6
f 704/3/6 703/3/6 705/3/6
f 693/5/6 698/5/6 706/5/6
f 698/3/6 704/3/6 707/3/6
f 706/5/6 698/5/6 707/5/6
f 704/2/6 705/2/6 708/2/6
f 707/3/6 704/3/6 708/3/6
f 705/3/6 703/3/6 709/3/6
f 708/2/6 705/2/6 709/2/6
f 696/5/6 697/5/6 710/5/6
f 709/3/6 703/3/6 710/3/6
f 703/3/6 696/3/6 710/3/6
f 710/5/6 697/5/6 711/5/6
f 708/5/6 709/5/6 712/5/6
f 707/5/6 708/5/6 712/5/6
f 709/5/6 710/5/6 712/5/6
f 712/5/6 710/5/6 713/5/6
