# MagicaVoxel @ Ephtracy

# group
o 

# material
mtllib Archery2.0.mtl
usemtl palette

# normals
vn -1 0 0
vn 1 0 0
vn 0 0 1
vn 0 0 -1
vn 0 -1 0
vn 0 1 0

# texcoords
vt 0.146484 0.5
vt 0.271484 0.5
vt 0.404297 0.5
vt 0.775391 0.5
vt 0.958984 0.5

# verts
v -0.7 0 0.6
v -0.7 0 0.5
v -0.7 0.1 0.6
v -0.7 0.1 0.5
v -0.7 0.8 0.7
v -0.7 0.8 0.6
v -0.7 1 0.7
v -0.7 1 0.6
v -0.6 0.1 0.6
v -0.6 0.1 0.5
v -0.6 0.7 0.7
v -0.6 0.7 0.6
v -0.6 0.8 0.7
v -0.6 0.8 0.6
v -0.6 0.9 0.6
v -0.6 0.9 0.5
v -0.6 1 0.7
v -0.6 1 0.6
v -0.6 1.1 0.7
v -0.6 1.1 0.6
v -0.5 0 0.5
v -0.5 0 0.2
v -0.5 0.1 0.5
v -0.5 0.1 0.2
v -0.5 0.6 0.7
v -0.5 0.6 0.6
v -0.5 0.7 0.7
v -0.5 0.7 0.6
v -0.5 1.1 0.7
v -0.5 1.1 0.6
v -0.5 1.2 0.7
v -0.5 1.2 0.6
v -0.4 0.5 0.7
v -0.4 0.5 0.6
v -0.4 0.6 0.7
v -0.4 0.6 0.6
v -0.4 1.2 0.7
v -0.4 1.2 0.6
v -0.4 1.3 0.7
v -0.4 1.3 0.6
v -0.3 0.4 0.7
v -0.3 0.4 0.6
v -0.3 0.5 0.7
v -0.3 0.5 0.6
v -0.3 1.3 0.7
v -0.3 1.3 0.6
v -0.3 1.4 0.7
v -0.3 1.4 0.6
v -0.2 0.1 0.3
v -0.2 0.1 0.2
v -0.2 0.3 0.7
v -0.2 0.3 0.6
v -0.2 0.4 0.7
v -0.2 0.4 0.6
v -0.2 0.6 0.4
v -0.2 0.6 0.3
v -0.2 0.7 0.5
v -0.2 0.7 0.4
v -0.2 0.7 0.3
v -0.2 0.7 0.2
v -0.2 0.8 0.6
v -0.2 0.8 0.5
v -0.2 0.8 0.4
v -0.2 0.8 0.3
v -0.2 0.9 0.5
v -0.2 0.9 0.4
v -0.2 1 0.6
v -0.2 1 0.5
v -0.2 1.4 0.7
v -0.2 1.4 0.6
v -0.2 1.5 0.7
v -0.2 1.5 0.6
v 0.2 0.1 0.6
v 0.2 0.1 0.5
v 0.2 0.6 0.6
v 0.2 0.9 0.6
v 0.2 0.9 0.5
v -0.5 0.1 0.6
v -0.5 0.1 0.5
v -0.5 0.6 0.6
v -0.5 0.9 0.6
v -0.5 0.9 0.5
v -0.1 0.1 0.3
v -0.1 0.1 0.2
v -0.1 0.3 0.7
v -0.1 0.3 0.6
v -0.1 0.4 0.7
v -0.1 0.4 0.6
v -0.1 0.6 0.4
v -0.1 0.6 0.3
v -0.1 0.7 0.5
v -0.1 0.7 0.4
v -0.1 0.7 0.3
v -0.1 0.7 0.2
v -0.1 0.8 0.6
v -0.1 0.8 0.5
v -0.1 0.8 0.4
v -0.1 0.8 0.3
v -0.1 0.9 0.5
v -0.1 0.9 0.4
v -0.1 1 0.6
v -0.1 1 0.5
v -0.1 1.4 0.7
v -0.1 1.4 0.6
v -0.1 1.5 0.7
v -0.1 1.5 0.6
v 5.96046e-08 0.4 0.7
v 5.96046e-08 0.4 0.6
v 5.96046e-08 0.5 0.7
v 5.96046e-08 0.5 0.6
v 5.96046e-08 1.3 0.7
v 5.96046e-08 1.3 0.6
v 5.96046e-08 1.4 0.7
v 5.96046e-08 1.4 0.6
v 0.1 0.5 0.7
v 0.1 0.5 0.6
v 0.1 0.6 0.7
v 0.1 0.6 0.6
v 0.1 1.2 0.7
v 0.1 1.2 0.6
v 0.1 1.3 0.7
v 0.1 1.3 0.6
v 0.2 0 0.5
v 0.2 0 0.2
v 0.2 0.1 0.5
v 0.2 0.1 0.2
v 0.2 1.1 0.7
v 0.2 1.1 0.6
v 0.2 1.2 0.7
v 0.2 1.2 0.6
v 0.3 0.1 0.6
v 0.3 0.1 0.5
v 0.3 0.6 0.7
v 0.3 0.6 0.6
v 0.3 0.7 0.7
v 0.3 0.7 0.6
v 0.3 0.8 0.7
v 0.3 0.8 0.6
v 0.3 0.9 0.6
v 0.3 0.9 0.5
v 0.3 1 0.7
v 0.3 1 0.6
v 0.3 1.1 0.7
v 0.3 1.1 0.6
v 0.4 0 0.6
v 0.4 0 0.5
v 0.4 0.1 0.6
v 0.4 0.1 0.5
v 0.4 0.8 0.7
v 0.4 0.8 0.6
v 0.4 1 0.7
v 0.4 1 0.6
v -0.7 0.8 0.7
v -0.7 1 0.7
v -0.6 0.7 0.7
v -0.6 0.8 0.7
v -0.6 1 0.7
v -0.6 1.1 0.7
v -0.5 0.6 0.7
v -0.5 0.7 0.7
v -0.5 1.1 0.7
v -0.5 1.2 0.7
v -0.4 0.5 0.7
v -0.4 0.6 0.7
v -0.4 0.8 0.7
v -0.4 1 0.7
v -0.4 1.2 0.7
v -0.4 1.3 0.7
v -0.3 0.4 0.7
v -0.3 0.5 0.7
v -0.3 0.7 0.7
v -0.3 0.8 0.7
v -0.3 1 0.7
v -0.3 1.1 0.7
v -0.3 1.3 0.7
v -0.3 1.4 0.7
v -0.2 0.3 0.7
v -0.2 0.4 0.7
v -0.2 0.6 0.7
v -0.2 0.7 0.7
v -0.2 0.8 0.7
v -0.2 1 0.7
v -0.2 1.1 0.7
v -0.2 1.2 0.7
v -0.2 1.4 0.7
v -0.2 1.5 0.7
v -0.1 0.3 0.7
v -0.1 0.4 0.7
v -0.1 0.6 0.7
v -0.1 0.7 0.7
v -0.1 0.8 0.7
v -0.1 1 0.7
v -0.1 1.1 0.7
v -0.1 1.2 0.7
v -0.1 1.4 0.7
v -0.1 1.5 0.7
v 5.96046e-08 0.4 0.7
v 5.96046e-08 0.5 0.7
v 5.96046e-08 0.7 0.7
v 5.96046e-08 0.8 0.7
v 5.96046e-08 1 0.7
v 5.96046e-08 1.1 0.7
v 5.96046e-08 1.3 0.7
v 5.96046e-08 1.4 0.7
v 0.1 0.5 0.7
v 0.1 0.6 0.7
v 0.1 0.8 0.7
v 0.1 1 0.7
v 0.1 1.2 0.7
v 0.1 1.3 0.7
v 0.2 0.6 0.7
v 0.2 0.7 0.7
v 0.2 1.1 0.7
v 0.2 1.2 0.7
v 0.3 0.6 0.7
v 0.3 0.7 0.7
v 0.3 0.8 0.7
v 0.3 1 0.7
v 0.3 1.1 0.7
v 0.4 0.8 0.7
v 0.4 1 0.7
v -0.7 0 0.6
v -0.7 0.1 0.6
v -0.6 0.1 0.6
v -0.6 0.7 0.6
v -0.5 0.1 0.6
v -0.5 0.6 0.6
v -0.5 0.7 0.6
v 0.2 0.1 0.6
v 0.2 0.6 0.6
v 0.3 0.1 0.6
v 0.3 0.6 0.6
v 0.4 0 0.6
v 0.4 0.1 0.6
v -0.2 0.7 0.5
v -0.2 0.8 0.5
v -0.1 0.7 0.5
v -0.1 0.8 0.5
v -0.2 0.6 0.4
v -0.2 0.7 0.4
v -0.1 0.6 0.4
v -0.1 0.7 0.4
v -0.2 0.1 0.3
v -0.2 0.6 0.3
v -0.1 0.1 0.3
v -0.1 0.6 0.3
v -0.7 0.8 0.6
v -0.7 1 0.6
v -0.6 0.8 0.6
v -0.6 0.9 0.6
v -0.6 1 0.6
v -0.6 1.1 0.6
v -0.5 0.6 0.6
v -0.5 0.9 0.6
v -0.5 1.1 0.6
v -0.5 1.2 0.6
v -0.4 0.5 0.6
v -0.4 0.6 0.6
v -0.4 0.8 0.6
v -0.4 1 0.6
v -0.4 1.2 0.6
v -0.4 1.3 0.6
v -0.3 0.4 0.6
v -0.3 0.5 0.6
v -0.3 0.7 0.6
v -0.3 0.8 0.6
v -0.3 1 0.6
v -0.3 1.1 0.6
v -0.3 1.3 0.6
v -0.3 1.4 0.6
v -0.2 0.3 0.6
v -0.2 0.4 0.6
v -0.2 0.6 0.6
v -0.2 0.7 0.6
v -0.2 0.8 0.6
v -0.2 1 0.6
v -0.2 1.1 0.6
v -0.2 1.2 0.6
v -0.2 1.4 0.6
v -0.2 1.5 0.6
v -0.1 0.3 0.6
v -0.1 0.4 0.6
v -0.1 0.6 0.6
v -0.1 0.7 0.6
v -0.1 0.8 0.6
v -0.1 1 0.6
v -0.1 1.1 0.6
v -0.1 1.2 0.6
v -0.1 1.4 0.6
v -0.1 1.5 0.6
v 5.96046e-08 0.4 0.6
v 5.96046e-08 0.5 0.6
v 5.96046e-08 0.7 0.6
v 5.96046e-08 0.8 0.6
v 5.96046e-08 1 0.6
v 5.96046e-08 1.1 0.6
v 5.96046e-08 1.3 0.6
v 5.96046e-08 1.4 0.6
v 0.1 0.5 0.6
v 0.1 0.6 0.6
v 0.1 0.8 0.6
v 0.1 1 0.6
v 0.1 1.2 0.6
v 0.1 1.3 0.6
v 0.2 0.6 0.6
v 0.2 0.9 0.6
v 0.2 1.1 0.6
v 0.2 1.2 0.6
v 0.3 0.8 0.6
v 0.3 0.9 0.6
v 0.3 1 0.6
v 0.3 1.1 0.6
v 0.4 0.8 0.6
v 0.4 1 0.6
v -0.7 0 0.5
v -0.7 0.1 0.5
v -0.6 0.1 0.5
v -0.6 0.9 0.5
v -0.5 0 0.5
v -0.5 0.1 0.5
v -0.5 0.9 0.5
v -0.2 0.9 0.5
v -0.2 1 0.5
v -0.1 0.9 0.5
v -0.1 1 0.5
v 0.2 0 0.5
v 0.2 0.1 0.5
v 0.2 0.9 0.5
v 0.3 0.1 0.5
v 0.3 0.9 0.5
v 0.4 0 0.5
v 0.4 0.1 0.5
v -0.2 0.8 0.4
v -0.2 0.9 0.4
v -0.1 0.8 0.4
v -0.1 0.9 0.4
v -0.2 0.7 0.3
v -0.2 0.8 0.3
v -0.1 0.7 0.3
v -0.1 0.8 0.3
v -0.5 0 0.2
v -0.5 0.1 0.2
v -0.2 0.1 0.2
v -0.2 0.7 0.2
v -0.1 0.1 0.2
v -0.1 0.7 0.2
v 0.2 0 0.2
v 0.2 0.1 0.2
v -0.7 0 0.6
v 0.4 0 0.6
v -0.7 0 0.5
v -0.5 0 0.5
v 0.2 0 0.5
v 0.4 0 0.5
v -0.5 0 0.2
v 0.2 0 0.2
v -0.2 0.3 0.7
v -0.1 0.3 0.7
v -0.2 0.3 0.6
v -0.1 0.3 0.6
v -0.3 0.4 0.7
v -0.2 0.4 0.7
v -0.1 0.4 0.7
v 5.96046e-08 0.4 0.7
v -0.3 0.4 0.6
v -0.2 0.4 0.6
v -0.1 0.4 0.6
v 5.96046e-08 0.4 0.6
v -0.4 0.5 0.7
v -0.3 0.5 0.7
v 5.96046e-08 0.5 0.7
v 0.1 0.5 0.7
v -0.4 0.5 0.6
v -0.3 0.5 0.6
v 5.96046e-08 0.5 0.6
v 0.1 0.5 0.6
v -0.5 0.6 0.7
v -0.4 0.6 0.7
v 0.1 0.6 0.7
v 0.2 0.6 0.7
v 0.3 0.6 0.7
v -0.5 0.6 0.6
v -0.4 0.6 0.6
v 0.1 0.6 0.6
v 0.2 0.6 0.6
v 0.3 0.6 0.6
v -0.2 0.6 0.4
v -0.1 0.6 0.4
v -0.2 0.6 0.3
v -0.1 0.6 0.3
v -0.6 0.7 0.7
v -0.5 0.7 0.7
v -0.6 0.7 0.6
v -0.5 0.7 0.6
v -0.2 0.7 0.5
v -0.1 0.7 0.5
v -0.2 0.7 0.4
v -0.1 0.7 0.4
v -0.7 0.8 0.7
v -0.6 0.8 0.7
v 0.3 0.8 0.7
v 0.4 0.8 0.7
v -0.7 0.8 0.6
v -0.6 0.8 0.6
v -0.2 0.8 0.6
v -0.1 0.8 0.6
v 0.3 0.8 0.6
v 0.4 0.8 0.6
v -0.2 0.8 0.5
v -0.1 0.8 0.5
v -0.7 0.1 0.6
v -0.6 0.1 0.6
v -0.5 0.1 0.6
v 0.2 0.1 0.6
v 0.3 0.1 0.6
v 0.4 0.1 0.6
v -0.7 0.1 0.5
v -0.6 0.1 0.5
v -0.5 0.1 0.5
v 0.2 0.1 0.5
v 0.3 0.1 0.5
v 0.4 0.1 0.5
v -0.2 0.1 0.3
v -0.1 0.1 0.3
v -0.5 0.1 0.2
v -0.2 0.1 0.2
v -0.1 0.1 0.2
v 0.2 0.1 0.2
v -0.2 0.7 0.3
v -0.1 0.7 0.3
v -0.2 0.7 0.2
v -0.1 0.7 0.2
v -0.2 0.8 0.4
v -0.1 0.8 0.4
v -0.2 0.8 0.3
v -0.1 0.8 0.3
v -0.6 0.9 0.6
v -0.5 0.9 0.6
v 0.2 0.9 0.6
v 0.3 0.9 0.6
v -0.6 0.9 0.5
v -0.5 0.9 0.5
v -0.2 0.9 0.5
v -0.1 0.9 0.5
v 0.2 0.9 0.5
v 0.3 0.9 0.5
v -0.2 0.9 0.4
v -0.1 0.9 0.4
v -0.7 1 0.7
v -0.6 1 0.7
v 0.3 1 0.7
v 0.4 1 0.7
v -0.7 1 0.6
v -0.6 1 0.6
v -0.2 1 0.6
v -0.1 1 0.6
v 0.3 1 0.6
v 0.4 1 0.6
v -0.2 1 0.5
v -0.1 1 0.5
v -0.6 1.1 0.7
v -0.5 1.1 0.7
v 0.2 1.1 0.7
v 0.3 1.1 0.7
v -0.6 1.1 0.6
v -0.5 1.1 0.6
v 0.2 1.1 0.6
v 0.3 1.1 0.6
v -0.5 1.2 0.7
v -0.4 1.2 0.7
v 0.1 1.2 0.7
v 0.2 1.2 0.7
v -0.5 1.2 0.6
v -0.4 1.2 0.6
v 0.1 1.2 0.6
v 0.2 1.2 0.6
v -0.4 1.3 0.7
v -0.3 1.3 0.7
v 5.96046e-08 1.3 0.7
v 0.1 1.3 0.7
v -0.4 1.3 0.6
v -0.3 1.3 0.6
v 5.96046e-08 1.3 0.6
v 0.1 1.3 0.6
v -0.3 1.4 0.7
v -0.2 1.4 0.7
v -0.1 1.4 0.7
v 5.96046e-08 1.4 0.7
v -0.3 1.4 0.6
v -0.2 1.4 0.6
v -0.1 1.4 0.6
v 5.96046e-08 1.4 0.6
v -0.2 1.5 0.7
v -0.1 1.5 0.7
v -0.2 1.5 0.6
v -0.1 1.5 0.6

# faces
f 3/2/1 2/2/1 1/2/1
f 4/2/1 2/2/1 3/2/1
f 7/3/1 6/3/1 5/3/1
f 8/3/1 6/3/1 7/3/1
f 12/2/1 10/2/1 9/2/1
f 13/3/1 12/3/1 11/3/1
f 14/2/1 10/2/1 12/2/1
f 14/3/1 12/3/1 13/3/1
f 15/2/1 10/2/1 14/2/1
f 16/2/1 10/2/1 15/2/1
f 19/3/1 18/3/1 17/3/1
f 20/3/1 18/3/1 19/3/1
f 23/2/1 22/2/1 21/2/1
f 24/2/1 22/2/1 23/2/1
f 27/3/1 26/3/1 25/3/1
f 28/3/1 26/3/1 27/3/1
f 31/3/1 30/3/1 29/3/1
f 32/3/1 30/3/1 31/3/1
f 35/3/1 34/3/1 33/3/1
f 36/3/1 34/3/1 35/3/1
f 39/3/1 38/3/1 37/3/1
f 40/3/1 38/3/1 39/3/1
f 43/3/1 42/3/1 41/3/1
f 44/3/1 42/3/1 43/3/1
f 47/3/1 46/3/1 45/3/1
f 48/3/1 46/3/1 47/3/1
f 53/3/1 52/3/1 51/3/1
f 54/3/1 52/3/1 53/3/1
f 56/2/1 50/2/1 49/2/1
f 58/2/1 56/2/1 55/2/1
f 59/2/1 50/2/1 56/2/1
f 59/2/1 56/2/1 58/2/1
f 60/2/1 50/2/1 59/2/1
f 62/2/1 58/2/1 57/2/1
f 62/2/1 59/2/1 58/2/1
f 63/2/1 59/2/1 62/2/1
f 64/2/1 59/2/1 63/2/1
f 65/2/1 62/2/1 61/2/1
f 65/2/1 63/2/1 62/2/1
f 66/2/1 63/2/1 65/2/1
f 67/2/1 65/2/1 61/2/1
f 68/2/1 65/2/1 67/2/1
f 71/3/1 70/3/1 69/3/1
f 72/3/1 70/3/1 71/3/1
f 75/2/1 74/2/1 73/2/1
f 76/2/1 74/2/1 75/2/1
f 77/2/1 74/2/1 76/2/1
f 78/2/2 79/2/2 80/2/2
f 80/2/2 79/2/2 81/2/2
f 81/2/2 79/2/2 82/2/2
f 85/3/2 86/3/2 87/3/2
f 87/3/2 86/3/2 88/3/2
f 83/2/2 84/2/2 90/2/2
f 89/2/2 90/2/2 92/2/2
f 90/2/2 84/2/2 93/2/2
f 92/2/2 90/2/2 93/2/2
f 93/2/2 84/2/2 94/2/2
f 91/2/2 92/2/2 96/2/2
f 92/2/2 93/2/2 96/2/2
f 96/2/2 93/2/2 97/2/2
f 97/2/2 93/2/2 98/2/2
f 95/2/2 96/2/2 99/2/2
f 96/2/2 97/2/2 99/2/2
f 99/2/2 97/2/2 100/2/2
f 95/2/2 99/2/2 101/2/2
f 101/2/2 99/2/2 102/2/2
f 103/3/2 104/3/2 105/3/2
f 105/3/2 104/3/2 106/3/2
f 107/3/2 108/3/2 109/3/2
f 109/3/2 108/3/2 110/3/2
f 111/3/2 112/3/2 113/3/2
f 113/3/2 112/3/2 114/3/2
f 115/3/2 116/3/2 117/3/2
f 117/3/2 116/3/2 118/3/2
f 119/3/2 120/3/2 121/3/2
f 121/3/2 120/3/2 122/3/2
f 123/2/2 124/2/2 125/2/2
f 125/2/2 124/2/2 126/2/2
f 127/3/2 128/3/2 129/3/2
f 129/3/2 128/3/2 130/3/2
f 131/2/2 132/2/2 134/2/2
f 133/2/2 134/2/2 135/2/2
f 134/2/2 132/2/2 136/2/2
f 135/2/2 134/2/2 136/2/2
f 135/3/2 136/3/2 137/3/2
f 136/2/2 132/2/2 138/2/2
f 137/3/2 136/3/2 138/3/2
f 138/2/2 132/2/2 139/2/2
f 139/2/2 132/2/2 140/2/2
f 141/3/2 142/3/2 143/3/2
f 143/3/2 142/3/2 144/3/2
f 145/2/2 146/2/2 147/2/2
f 147/2/2 146/2/2 148/2/2
f 149/3/2 150/3/2 151/3/2
f 151/3/2 150/3/2 152/3/2
f 156/3/3 154/3/3 153/3/3
f 157/3/3 154/3/3 156/3/3
f 160/3/3 156/3/3 155/3/3
f 160/3/3 158/3/3 157/3/3
f 160/3/3 157/3/3 156/3/3
f 161/3/3 158/3/3 160/3/3
f 164/3/3 160/3/3 159/3/3
f 164/3/3 162/3/3 161/3/3
f 164/3/3 161/3/3 160/3/3
f 165/3/3 162/3/3 164/3/3
f 166/3/3 162/3/3 165/3/3
f 167/3/3 162/3/3 166/3/3
f 170/3/3 164/3/3 163/3/3
f 170/3/3 165/3/3 164/3/3
f 171/3/3 165/3/3 170/3/3
f 172/4/3 166/4/3 165/4/3
f 172/3/3 165/3/3 171/3/3
f 173/3/3 168/3/3 167/3/3
f 173/4/3 166/4/3 172/4/3
f 173/3/3 167/3/3 166/3/3
f 174/3/3 168/3/3 173/3/3
f 175/3/3 168/3/3 174/3/3
f 178/3/3 170/3/3 169/3/3
f 178/3/3 171/3/3 170/3/3
f 179/3/3 171/3/3 178/3/3
f 180/4/3 172/4/3 171/4/3
f 180/3/3 171/3/3 179/3/3
f 181/1/3 173/1/3 172/1/3
f 181/4/3 172/4/3 180/4/3
f 182/4/3 174/4/3 173/4/3
f 182/1/3 173/1/3 181/1/3
f 183/3/3 176/3/3 175/3/3
f 183/4/3 174/4/3 182/4/3
f 183/3/3 175/3/3 174/3/3
f 184/3/3 176/3/3 183/3/3
f 185/3/3 176/3/3 184/3/3
f 187/3/3 179/3/3 178/3/3
f 187/3/3 178/3/3 177/3/3
f 188/3/3 179/3/3 187/3/3
f 189/4/3 180/4/3 179/4/3
f 189/3/3 179/3/3 188/3/3
f 190/1/3 181/1/3 180/1/3
f 190/4/3 180/4/3 189/4/3
f 191/5/3 182/5/3 181/5/3
f 191/1/3 181/1/3 190/1/3
f 192/1/3 183/1/3 182/1/3
f 192/5/3 182/5/3 191/5/3
f 193/4/3 184/4/3 183/4/3
f 193/1/3 183/1/3 192/1/3
f 194/3/3 186/3/3 185/3/3
f 194/4/3 184/4/3 193/4/3
f 194/3/3 185/3/3 184/3/3
f 195/3/3 186/3/3 194/3/3
f 196/3/3 186/3/3 195/3/3
f 197/3/3 190/3/3 189/3/3
f 197/3/3 189/3/3 188/3/3
f 198/3/3 190/3/3 197/3/3
f 199/4/3 191/4/3 190/4/3
f 199/3/3 190/3/3 198/3/3
f 200/1/3 192/1/3 191/1/3
f 200/4/3 191/4/3 199/4/3
f 201/4/3 193/4/3 192/4/3
f 201/1/3 192/1/3 200/1/3
f 202/3/3 195/3/3 194/3/3
f 202/4/3 193/4/3 201/4/3
f 202/3/3 194/3/3 193/3/3
f 203/3/3 195/3/3 202/3/3
f 204/3/3 195/3/3 203/3/3
f 205/3/3 200/3/3 199/3/3
f 205/3/3 199/3/3 198/3/3
f 206/3/3 200/3/3 205/3/3
f 207/4/3 201/4/3 200/4/3
f 207/3/3 200/3/3 206/3/3
f 208/3/3 203/3/3 202/3/3
f 208/4/3 201/4/3 207/4/3
f 208/3/3 202/3/3 201/3/3
f 209/3/3 203/3/3 208/3/3
f 210/3/3 203/3/3 209/3/3
f 211/3/3 207/3/3 206/3/3
f 211/3/3 209/3/3 208/3/3
f 211/3/3 208/3/3 207/3/3
f 212/3/3 209/3/3 211/3/3
f 213/3/3 209/3/3 212/3/3
f 214/3/3 209/3/3 213/3/3
f 215/2/3 212/2/3 211/2/3
f 216/3/3 213/3/3 212/3/3
f 216/2/3 212/2/3 215/2/3
f 217/3/3 213/3/3 216/3/3
f 218/3/3 213/3/3 217/3/3
f 219/3/3 213/3/3 218/3/3
f 220/3/3 218/3/3 217/3/3
f 221/3/3 218/3/3 220/3/3
f 224/2/3 223/2/3 222/2/3
f 226/2/3 224/2/3 222/2/3
f 226/2/3 225/2/3 224/2/3
f 227/2/3 225/2/3 226/2/3
f 228/2/3 225/2/3 227/2/3
f 229/2/3 226/2/3 222/2/3
f 231/2/3 229/2/3 222/2/3
f 231/2/3 230/2/3 229/2/3
f 232/2/3 230/2/3 231/2/3
f 233/2/3 231/2/3 222/2/3
f 234/2/3 231/2/3 233/2/3
f 237/2/3 236/2/3 235/2/3
f 238/2/3 236/2/3 237/2/3
f 241/2/3 240/2/3 239/2/3
f 242/2/3 240/2/3 241/2/3
f 245/2/3 244/2/3 243/2/3
f 246/2/3 244/2/3 245/2/3
f 247/3/4 248/3/4 249/3/4
f 249/3/4 248/3/4 250/3/4
f 250/3/4 248/3/4 251/3/4
f 251/3/4 252/3/4 254/3/4
f 250/3/4 251/3/4 254/3/4
f 254/3/4 252/3/4 255/3/4
f 253/3/4 254/3/4 258/3/4
f 255/3/4 256/3/4 258/3/4
f 254/3/4 255/3/4 258/3/4
f 258/3/4 256/3/4 259/3/4
f 259/3/4 256/3/4 260/3/4
f 260/3/4 256/3/4 261/3/4
f 257/3/4 258/3/4 264/3/4
f 258/3/4 259/3/4 264/3/4
f 264/3/4 259/3/4 265/3/4
f 259/4/4 260/4/4 266/4/4
f 265/3/4 259/3/4 266/3/4
f 261/3/4 262/3/4 267/3/4
f 266/4/4 260/4/4 267/4/4
f 260/3/4 261/3/4 267/3/4
f 267/3/4 262/3/4 268/3/4
f 268/3/4 262/3/4 269/3/4
f 263/3/4 264/3/4 272/3/4
f 264/3/4 265/3/4 272/3/4
f 272/3/4 265/3/4 273/3/4
f 265/4/4 266/4/4 274/4/4
f 273/3/4 265/3/4 274/3/4
f 266/1/4 267/1/4 275/1/4
f 274/4/4 266/4/4 275/4/4
f 267/4/4 268/4/4 276/4/4
f 275/1/4 267/1/4 276/1/4
f 269/3/4 270/3/4 277/3/4
f 276/4/4 268/4/4 277/4/4
f 268/3/4 269/3/4 277/3/4
f 277/3/4 270/3/4 278/3/4
f 278/3/4 270/3/4 279/3/4
f 272/3/4 273/3/4 281/3/4
f 271/3/4 272/3/4 281/3/4
f 281/3/4 273/3/4 282/3/4
f 273/4/4 274/4/4 283/4/4
f 282/3/4 273/3/4 283/3/4
f 274/1/4 275/1/4 284/1/4
f 283/4/4 274/4/4 284/4/4
f 284/1/4 275/1/4 285/1/4
f 276/1/4 277/1/4 286/1/4
f 277/4/4 278/4/4 287/4/4
f 286/1/4 277/1/4 287/1/4
f 279/3/4 280/3/4 288/3/4
f 287/4/4 278/4/4 288/4/4
f 278/3/4 279/3/4 288/3/4
f 288/3/4 280/3/4 289/3/4
f 289/3/4 280/3/4 290/3/4
f 282/3/4 283/3/4 291/3/4
f 283/3/4 284/3/4 291/3/4
f 291/3/4 284/3/4 292/3/4
f 284/4/4 285/4/4 293/4/4
f 292/3/4 284/3/4 293/3/4
f 285/1/4 286/1/4 294/1/4
f 293/4/4 285/4/4 294/4/4
f 286/4/4 287/4/4 295/4/4
f 294/1/4 286/1/4 295/1/4
f 288/3/4 289/3/4 296/3/4
f 295/4/4 287/4/4 296/4/4
f 287/3/4 288/3/4 296/3/4
f 296/3/4 289/3/4 297/3/4
f 297/3/4 289/3/4 298/3/4
f 293/3/4 294/3/4 299/3/4
f 292/3/4 293/3/4 299/3/4
f 299/3/4 294/3/4 300/3/4
f 294/4/4 295/4/4 301/4/4
f 300/3/4 294/3/4 301/3/4
f 296/3/4 297/3/4 302/3/4
f 301/4/4 295/4/4 302/4/4
f 295/3/4 296/3/4 302/3/4
f 302/3/4 297/3/4 303/3/4
f 303/3/4 297/3/4 304/3/4
f 300/3/4 301/3/4 305/3/4
f 302/3/4 303/3/4 305/3/4
f 301/3/4 302/3/4 305/3/4
f 305/3/4 303/3/4 306/3/4
f 306/3/4 303/3/4 307/3/4
f 307/3/4 303/3/4 308/3/4
f 306/3/4 307/3/4 310/3/4
f 310/3/4 307/3/4 311/3/4
f 311/3/4 307/3/4 312/3/4
f 309/3/4 310/3/4 313/3/4
f 310/3/4 311/3/4 313/3/4
f 313/3/4 311/3/4 314/3/4
f 315/2/4 316/2/4 317/2/4
f 315/2/4 317/2/4 319/2/4
f 317/2/4 318/2/4 319/2/4
f 319/2/4 318/2/4 320/2/4
f 320/2/4 318/2/4 321/2/4
f 322/2/4 323/2/4 324/2/4
f 324/2/4 323/2/4 325/2/4
f 326/2/4 327/2/4 329/2/4
f 327/2/4 328/2/4 329/2/4
f 329/2/4 328/2/4 330/2/4
f 326/2/4 329/2/4 331/2/4
f 331/2/4 329/2/4 332/2/4
f 333/2/4 334/2/4 335/2/4
f 335/2/4 334/2/4 336/2/4
f 337/2/4 338/2/4 339/2/4
f 339/2/4 338/2/4 340/2/4
f 341/2/4 342/2/4 343/2/4
f 341/2/4 343/2/4 345/2/4
f 343/2/4 344/2/4 345/2/4
f 345/2/4 344/2/4 346/2/4
f 341/2/4 345/2/4 347/2/4
f 347/2/4 345/2/4 348/2/4
f 351/2/5 350/2/5 349/2/5
f 352/2/5 350/2/5 351/2/5
f 353/2/5 350/2/5 352/2/5
f 354/2/5 350/2/5 353/2/5
f 355/2/5 353/2/5 352/2/5
f 356/2/5 353/2/5 355/2/5
f 359/3/5 358/3/5 357/3/5
f 360/3/5 358/3/5 359/3/5
f 365/3/5 362/3/5 361/3/5
f 366/3/5 362/3/5 365/3/5
f 367/3/5 364/3/5 363/3/5
f 368/3/5 364/3/5 367/3/5
f 373/3/5 370/3/5 369/3/5
f 374/3/5 370/3/5 373/3/5
f 375/3/5 372/3/5 371/3/5
f 376/3/5 372/3/5 375/3/5
f 382/3/5 378/3/5 377/3/5
f 383/3/5 378/3/5 382/3/5
f 384/3/5 380/3/5 379/3/5
f 385/2/5 381/2/5 380/2/5
f 385/3/5 380/3/5 384/3/5
f 386/2/5 381/2/5 385/2/5
f 389/2/5 388/2/5 387/2/5
f 390/2/5 388/2/5 389/2/5
f 393/3/5 392/3/5 391/3/5
f 394/3/5 392/3/5 393/3/5
f 397/2/5 396/2/5 395/2/5
f 398/2/5 396/2/5 397/2/5
f 403/3/5 400/3/5 399/3/5
f 404/3/5 400/3/5 403/3/5
f 407/3/5 402/3/5 401/3/5
f 408/3/5 402/3/5 407/3/5
f 409/2/5 406/2/5 405/2/5
f 410/2/5 406/2/5 409/2/5
f 411/2/6 412/2/6 417/2/6
f 417/2/6 412/2/6 418/2/6
f 413/2/6 414/2/6 419/2/6
f 419/2/6 414/2/6 420/2/6
f 415/2/6 416/2/6 421/2/6
f 421/2/6 416/2/6 422/2/6
f 419/2/6 420/2/6 423/2/6
f 423/2/6 420/2/6 424/2/6
f 419/2/6 423/2/6 425/2/6
f 425/2/6 423/2/6 426/2/6
f 424/2/6 420/2/6 427/2/6
f 427/2/6 420/2/6 428/2/6
f 429/2/6 430/2/6 431/2/6
f 431/2/6 430/2/6 432/2/6
f 433/2/6 434/2/6 435/2/6
f 435/2/6 434/2/6 436/2/6
f 437/2/6 438/2/6 441/2/6
f 441/2/6 438/2/6 442/2/6
f 439/2/6 440/2/6 445/2/6
f 445/2/6 440/2/6 446/2/6
f 443/2/6 444/2/6 447/2/6
f 447/2/6 444/2/6 448/2/6
f 449/3/6 450/3/6 453/3/6
f 453/3/6 450/3/6 454/3/6
f 451/3/6 452/3/6 457/3/6
f 457/3/6 452/3/6 458/3/6
f 455/2/6 456/2/6 459/2/6
f 459/2/6 456/2/6 460/2/6
f 461/3/6 462/3/6 465/3/6
f 465/3/6 462/3/6 466/3/6
f 463/3/6 464/3/6 467/3/6
f 467/3/6 464/3/6 468/3/6
f 469/3/6 470/3/6 473/3/6
f 473/3/6 470/3/6 474/3/6
f 471/3/6 472/3/6 475/3/6
f 475/3/6 472/3/6 476/3/6
f 477/3/6 478/3/6 481/3/6
f 481/3/6 478/3/6 482/3/6
f 479/3/6 480/3/6 483/3/6
f 483/3/6 480/3/6 484/3/6
f 485/3/6 486/3/6 489/3/6
f 489/3/6 486/3/6 490/3/6
f 487/3/6 488/3/6 491/3/6
f 491/3/6 488/3/6 492/3/6
f 493/3/6 494/3/6 495/3/6
f 495/3/6 494/3/6 496/3/6
