# MagicaVoxel @ Ephtracy

# group
o 

# material
mtllib Arrow.mtl
usemtl palette

# normals
vn -1 0 0
vn 1 0 0
vn 0 0 1
vn 0 0 -1
vn 0 -1 0
vn 0 1 0

# texcoords
vt 0.396484 0.5
vt 0.958984 0.5
vt 0.962891 0.5
vt 0.990234 0.5

# verts
v -0.3 0.4 0.5
v -0.3 0.4 0.4
v -0.3 0.5 0.5
v -0.3 0.5 0.4
v -0.3 0.6 0.5
v -0.3 0.6 0.4
v -0.3 1.2 0.5
v -0.3 1.2 0.4
v -0.3 1.3 0.5
v -0.3 1.3 0.4
v -0.2 0.6 0.5
v -0.2 0.6 0.4
v -0.2 1.2 0.5
v -0.2 1.2 0.4
v -0.2 1.3 0.5
v -0.2 1.3 0.4
v -0.2 1.4 0.5
v -0.2 1.4 0.4
v -0.1 0.4 0.5
v -0.1 0.4 0.4
v -0.1 0.5 0.5
v -0.1 0.5 0.4
v -0.2 0.4 0.5
v -0.2 0.4 0.4
v -0.2 0.5 0.5
v -0.2 0.5 0.4
v -0.1 0.6 0.5
v -0.1 0.6 0.4
v -0.1 1.2 0.5
v -0.1 1.2 0.4
v -0.1 1.3 0.5
v -0.1 1.3 0.4
v -0.1 1.4 0.5
v -0.1 1.4 0.4
v 2.98023e-08 0.4 0.5
v 2.98023e-08 0.4 0.4
v 2.98023e-08 0.6 0.5
v 2.98023e-08 0.6 0.4
v 2.98023e-08 1.2 0.5
v 2.98023e-08 1.2 0.4
v 2.98023e-08 1.3 0.5
v 2.98023e-08 1.3 0.4
v -0.3 0.4 0.5
v -0.3 0.5 0.5
v -0.3 0.6 0.5
v -0.3 1.2 0.5
v -0.3 1.3 0.5
v -0.2 0.4 0.5
v -0.2 0.5 0.5
v -0.2 0.6 0.5
v -0.2 1.2 0.5
v -0.2 1.3 0.5
v -0.2 1.4 0.5
v -0.1 0.4 0.5
v -0.1 0.5 0.5
v -0.1 0.6 0.5
v -0.1 1.2 0.5
v -0.1 1.3 0.5
v -0.1 1.4 0.5
v 2.98023e-08 0.4 0.5
v 2.98023e-08 0.6 0.5
v 2.98023e-08 1.2 0.5
v 2.98023e-08 1.3 0.5
v -0.3 0.4 0.4
v -0.3 0.5 0.4
v -0.3 0.6 0.4
v -0.3 1.2 0.4
v -0.3 1.3 0.4
v -0.2 0.4 0.4
v -0.2 0.5 0.4
v -0.2 0.6 0.4
v -0.2 1.2 0.4
v -0.2 1.3 0.4
v -0.2 1.4 0.4
v -0.1 0.4 0.4
v -0.1 0.5 0.4
v -0.1 0.6 0.4
v -0.1 1.2 0.4
v -0.1 1.3 0.4
v -0.1 1.4 0.4
v 2.98023e-08 0.4 0.4
v 2.98023e-08 0.6 0.4
v 2.98023e-08 1.2 0.4
v 2.98023e-08 1.3 0.4
v -0.3 0.4 0.5
v -0.2 0.4 0.5
v -0.1 0.4 0.5
v 2.98023e-08 0.4 0.5
v -0.3 0.4 0.4
v -0.2 0.4 0.4
v -0.1 0.4 0.4
v 2.98023e-08 0.4 0.4
v -0.2 0.5 0.5
v -0.1 0.5 0.5
v -0.2 0.5 0.4
v -0.1 0.5 0.4
v -0.3 1.2 0.5
v -0.2 1.2 0.5
v -0.1 1.2 0.5
v 2.98023e-08 1.2 0.5
v -0.3 1.2 0.4
v -0.2 1.2 0.4
v -0.1 1.2 0.4
v 2.98023e-08 1.2 0.4
v -0.3 0.6 0.5
v -0.2 0.6 0.5
v -0.1 0.6 0.5
v 2.98023e-08 0.6 0.5
v -0.3 0.6 0.4
v -0.2 0.6 0.4
v -0.1 0.6 0.4
v 2.98023e-08 0.6 0.4
v -0.3 1.3 0.5
v -0.2 1.3 0.5
v -0.1 1.3 0.5
v 2.98023e-08 1.3 0.5
v -0.3 1.3 0.4
v -0.2 1.3 0.4
v -0.1 1.3 0.4
v 2.98023e-08 1.3 0.4
v -0.2 1.4 0.5
v -0.1 1.4 0.5
v -0.2 1.4 0.4
v -0.1 1.4 0.4

# faces
f 3/3/1 2/3/1 1/3/1
f 4/3/1 2/3/1 3/3/1
f 5/2/1 4/2/1 3/2/1
f 6/2/1 4/2/1 5/2/1
f 9/4/1 8/4/1 7/4/1
f 10/4/1 8/4/1 9/4/1
f 13/1/1 12/1/1 11/1/1
f 14/1/1 12/1/1 13/1/1
f 17/4/1 16/4/1 15/4/1
f 18/4/1 16/4/1 17/4/1
f 21/2/1 20/2/1 19/2/1
f 22/2/1 20/2/1 21/2/1
f 23/3/2 24/3/2 25/3/2
f 25/3/2 24/3/2 26/3/2
f 27/1/2 28/1/2 29/1/2
f 29/1/2 28/1/2 30/1/2
f 31/4/2 32/4/2 33/4/2
f 33/4/2 32/4/2 34/4/2
f 35/2/2 36/2/2 37/2/2
f 37/2/2 36/2/2 38/2/2
f 39/4/2 40/4/2 41/4/2
f 41/4/2 40/4/2 42/4/2
f 48/3/3 44/3/3 43/3/3
f 49/2/3 45/2/3 44/2/3
f 49/3/3 44/3/3 48/3/3
f 50/2/3 45/2/3 49/2/3
f 51/4/3 47/4/3 46/4/3
f 52/4/3 47/4/3 51/4/3
f 55/1/3 50/1/3 49/1/3
f 55/1/3 51/1/3 50/1/3
f 56/1/3 51/1/3 55/1/3
f 57/4/3 52/4/3 51/4/3
f 57/1/3 51/1/3 56/1/3
f 57/4/3 53/4/3 52/4/3
f 58/4/3 53/4/3 57/4/3
f 59/4/3 53/4/3 58/4/3
f 60/2/3 56/2/3 55/2/3
f 60/2/3 55/2/3 54/2/3
f 61/2/3 56/2/3 60/2/3
f 62/4/3 58/4/3 57/4/3
f 63/4/3 58/4/3 62/4/3
f 64/3/4 65/3/4 69/3/4
f 65/2/4 66/2/4 70/2/4
f 69/3/4 65/3/4 70/3/4
f 70/2/4 66/2/4 71/2/4
f 67/4/4 68/4/4 72/4/4
f 72/4/4 68/4/4 73/4/4
f 70/1/4 71/1/4 76/1/4
f 71/1/4 72/1/4 76/1/4
f 76/1/4 72/1/4 77/1/4
f 72/4/4 73/4/4 78/4/4
f 77/1/4 72/1/4 78/1/4
f 73/4/4 74/4/4 78/4/4
f 78/4/4 74/4/4 79/4/4
f 79/4/4 74/4/4 80/4/4
f 76/2/4 77/2/4 81/2/4
f 75/2/4 76/2/4 81/2/4
f 81/2/4 77/2/4 82/2/4
f 78/4/4 79/4/4 83/4/4
f 83/4/4 79/4/4 84/4/4
f 89/3/5 86/3/5 85/3/5
f 90/3/5 86/3/5 89/3/5
f 91/2/5 88/2/5 87/2/5
f 92/2/5 88/2/5 91/2/5
f 95/1/5 94/1/5 93/1/5
f 96/1/5 94/1/5 95/1/5
f 101/4/5 98/4/5 97/4/5
f 102/4/5 98/4/5 101/4/5
f 103/4/5 100/4/5 99/4/5
f 104/4/5 100/4/5 103/4/5
f 105/2/6 106/2/6 109/2/6
f 109/2/6 106/2/6 110/2/6
f 107/2/6 108/2/6 111/2/6
f 111/2/6 108/2/6 112/2/6
f 113/4/6 114/4/6 117/4/6
f 117/4/6 114/4/6 118/4/6
f 115/4/6 116/4/6 119/4/6
f 119/4/6 116/4/6 120/4/6
f 121/4/6 122/4/6 123/4/6
f 123/4/6 122/4/6 124/4/6
