# MagicaVoxel @ Ephtracy

# group
o 

# material
mtllib Pickaxe.mtl
usemtl palette

# normals
vn -1 0 0
vn 1 0 0
vn 0 0 1
vn 0 0 -1
vn 0 -1 0
vn 0 1 0

# texcoords
vt 0.396484 0.5
vt 0.986328 0.5

# verts
v -0.7 0 0.4
v -0.7 0 0.3
v -0.7 0.1 0.3
v -0.7 0.1 0.2
v -0.7 0.2 0.4
v -0.7 0.2 0.3
v -0.7 0.2 0.2
v -0.7 0.2 0.1
v -0.7 0.3 0.3
v -0.7 0.3 0.2
v -0.7 0.3 0.1
v -0.7 0.3 0
v -0.7 0.3 -0.5
v -0.7 0.3 -0.6
v -0.7 0.4 0.2
v -0.7 0.4 0.1
v -0.7 0.4 -0.4
v -0.7 0.4 -0.5
v -0.7 0.5 0
v -0.7 0.5 -0.1
v -0.7 0.6 0.1
v -0.7 0.6 0
v -0.7 0.6 -0.1
v -0.7 0.6 -0.2
v -0.7 0.6 -0.3
v -0.7 0.6 -0.4
v -0.7 0.6 -0.5
v -0.7 0.6 -0.6
v -0.7 0.7 0
v -0.7 0.7 -0.1
v -0.7 0.7 -0.2
v -0.7 0.7 -0.3
v -0.7 0.8 -0.1
v -0.7 0.8 -0.3
v -0.7 0.8 -0.4
v -0.7 0.8 -0.5
v -0.7 0.9 0
v -0.7 0.9 -0.1
v -0.7 0.9 -0.3
v -0.7 0.9 -0.4
v -0.7 1 0.2
v -0.7 1 0
v -0.7 1 -0.2
v -0.7 1 -0.3
v -0.7 1.1 0.2
v -0.7 1.1 0.1
v -0.7 1.1 -0.1
v -0.7 1.1 -0.2
v -0.7 1.2 0.1
v -0.7 1.2 -0.1
v -0.6 0 0.4
v -0.6 0 0.3
v -0.6 0.1 0.3
v -0.6 0.1 0.2
v -0.6 0.2 0.4
v -0.6 0.2 0.3
v -0.6 0.2 0.2
v -0.6 0.2 0.1
v -0.6 0.3 0.3
v -0.6 0.3 0.2
v -0.6 0.3 0.1
v -0.6 0.3 0
v -0.6 0.3 -0.5
v -0.6 0.3 -0.6
v -0.6 0.4 0.2
v -0.6 0.4 0.1
v -0.6 0.4 -0.4
v -0.6 0.4 -0.5
v -0.6 0.5 0
v -0.6 0.5 -0.1
v -0.6 0.6 0.1
v -0.6 0.6 0
v -0.6 0.6 -0.1
v -0.6 0.6 -0.2
v -0.6 0.6 -0.3
v -0.6 0.6 -0.4
v -0.6 0.6 -0.5
v -0.6 0.6 -0.6
v -0.6 0.7 0
v -0.6 0.7 -0.1
v -0.6 0.7 -0.2
v -0.6 0.7 -0.3
v -0.6 0.8 -0.1
v -0.6 0.8 -0.3
v -0.6 0.8 -0.4
v -0.6 0.8 -0.5
v -0.6 0.9 0
v -0.6 0.9 -0.1
v -0.6 0.9 -0.3
v -0.6 0.9 -0.4
v -0.6 1 0.2
v -0.6 1 0
v -0.6 1 -0.2
v -0.6 1 -0.3
v -0.6 1.1 0.2
v -0.6 1.1 0.1
v -0.6 1.1 -0.1
v -0.6 1.1 -0.2
v -0.6 1.2 0.1
v -0.6 1.2 -0.1
v -0.7 0 0.4
v -0.7 0.2 0.4
v -0.6 0 0.4
v -0.6 0.2 0.4
v -0.7 0.2 0.3
v -0.7 0.3 0.3
v -0.6 0.2 0.3
v -0.6 0.3 0.3
v -0.7 0.3 0.2
v -0.7 0.4 0.2
v -0.7 1 0.2
v -0.7 1.1 0.2
v -0.6 0.3 0.2
v -0.6 0.4 0.2
v -0.6 1 0.2
v -0.6 1.1 0.2
v -0.7 0.4 0.1
v -0.7 0.6 0.1
v -0.7 1.1 0.1
v -0.7 1.2 0.1
v -0.6 0.4 0.1
v -0.6 0.6 0.1
v -0.6 1.1 0.1
v -0.6 1.2 0.1
v -0.7 0.6 0
v -0.7 0.7 0
v -0.7 0.9 0
v -0.7 1 0
v -0.6 0.6 0
v -0.6 0.7 0
v -0.6 0.9 0
v -0.6 1 0
v -0.7 0.7 -0.1
v -0.7 0.8 -0.1
v -0.7 0.9 -0.1
v -0.6 0.7 -0.1
v -0.6 0.8 -0.1
v -0.6 0.9 -0.1
v -0.7 0.6 -0.3
v -0.7 0.7 -0.3
v -0.6 0.6 -0.3
v -0.6 0.7 -0.3
v -0.7 0.4 -0.4
v -0.7 0.6 -0.4
v -0.6 0.4 -0.4
v -0.6 0.6 -0.4
v -0.7 0.3 -0.5
v -0.7 0.4 -0.5
v -0.6 0.3 -0.5
v -0.6 0.4 -0.5
v -0.7 0 0.3
v -0.7 0.1 0.3
v -0.6 0 0.3
v -0.6 0.1 0.3
v -0.7 0.1 0.2
v -0.7 0.2 0.2
v -0.6 0.1 0.2
v -0.6 0.2 0.2
v -0.7 0.2 0.1
v -0.7 0.3 0.1
v -0.6 0.2 0.1
v -0.6 0.3 0.1
v -0.7 0.3 0
v -0.7 0.5 0
v -0.6 0.3 0
v -0.6 0.5 0
v -0.7 0.5 -0.1
v -0.7 0.6 -0.1
v -0.7 1.1 -0.1
v -0.7 1.2 -0.1
v -0.6 0.5 -0.1
v -0.6 0.6 -0.1
v -0.6 1.1 -0.1
v -0.6 1.2 -0.1
v -0.7 0.6 -0.2
v -0.7 0.7 -0.2
v -0.7 1 -0.2
v -0.7 1.1 -0.2
v -0.6 0.6 -0.2
v -0.6 0.7 -0.2
v -0.6 1 -0.2
v -0.6 1.1 -0.2
v -0.7 0.9 -0.3
v -0.7 1 -0.3
v -0.6 0.9 -0.3
v -0.6 1 -0.3
v -0.7 0.8 -0.4
v -0.7 0.9 -0.4
v -0.6 0.8 -0.4
v -0.6 0.9 -0.4
v -0.7 0.6 -0.5
v -0.7 0.8 -0.5
v -0.6 0.6 -0.5
v -0.6 0.8 -0.5
v -0.7 0.3 -0.6
v -0.7 0.6 -0.6
v -0.6 0.3 -0.6
v -0.6 0.6 -0.6
v -0.7 0 0.4
v -0.6 0 0.4
v -0.7 0 0.3
v -0.6 0 0.3
v -0.7 0.1 0.3
v -0.6 0.1 0.3
v -0.7 0.1 0.2
v -0.6 0.1 0.2
v -0.7 0.2 0.2
v -0.6 0.2 0.2
v -0.7 0.2 0.1
v -0.6 0.2 0.1
v -0.7 0.3 0.1
v -0.6 0.3 0.1
v -0.7 0.3 0
v -0.6 0.3 0
v -0.7 0.3 -0.5
v -0.6 0.3 -0.5
v -0.7 0.3 -0.6
v -0.6 0.3 -0.6
v -0.7 0.4 -0.4
v -0.6 0.4 -0.4
v -0.7 0.4 -0.5
v -0.6 0.4 -0.5
v -0.7 0.5 0
v -0.6 0.5 0
v -0.7 0.5 -0.1
v -0.6 0.5 -0.1
v -0.7 0.6 -0.1
v -0.6 0.6 -0.1
v -0.7 0.6 -0.2
v -0.6 0.6 -0.2
v -0.7 0.6 -0.3
v -0.6 0.6 -0.3
v -0.7 0.6 -0.4
v -0.6 0.6 -0.4
v -0.7 0.7 -0.2
v -0.6 0.7 -0.2
v -0.7 0.7 -0.3
v -0.6 0.7 -0.3
v -0.7 0.9 0
v -0.6 0.9 0
v -0.7 0.9 -0.1
v -0.6 0.9 -0.1
v -0.7 1 0.2
v -0.6 1 0.2
v -0.7 1 0
v -0.6 1 0
v -0.7 0.2 0.4
v -0.6 0.2 0.4
v -0.7 0.2 0.3
v -0.6 0.2 0.3
v -0.7 0.3 0.3
v -0.6 0.3 0.3
v -0.7 0.3 0.2
v -0.6 0.3 0.2
v -0.7 0.4 0.2
v -0.6 0.4 0.2
v -0.7 0.4 0.1
v -0.6 0.4 0.1
v -0.7 0.6 0.1
v -0.6 0.6 0.1
v -0.7 0.6 0
v -0.6 0.6 0
v -0.7 0.6 -0.5
v -0.6 0.6 -0.5
v -0.7 0.6 -0.6
v -0.6 0.6 -0.6
v -0.7 0.7 0
v -0.6 0.7 0
v -0.7 0.7 -0.1
v -0.6 0.7 -0.1
v -0.7 0.8 -0.4
v -0.6 0.8 -0.4
v -0.7 0.8 -0.5
v -0.6 0.8 -0.5
v -0.7 0.9 -0.3
v -0.6 0.9 -0.3
v -0.7 0.9 -0.4
v -0.6 0.9 -0.4
v -0.7 1 -0.2
v -0.6 1 -0.2
v -0.7 1 -0.3
v -0.6 1 -0.3
v -0.7 1.1 0.2
v -0.6 1.1 0.2
v -0.7 1.1 0.1
v -0.6 1.1 0.1
v -0.7 1.1 -0.1
v -0.6 1.1 -0.1
v -0.7 1.1 -0.2
v -0.6 1.1 -0.2
v -0.7 1.2 0.1
v -0.6 1.2 0.1
v -0.7 1.2 -0.1
v -0.6 1.2 -0.1

# faces
f 3/1/1 2/1/1 1/1/1
f 5/1/1 3/1/1 1/1/1
f 5/1/1 4/1/1 3/1/1
f 6/1/1 4/1/1 5/1/1
f 7/1/1 4/1/1 6/1/1
f 9/1/1 8/1/1 7/1/1
f 9/1/1 7/1/1 6/1/1
f 10/1/1 8/1/1 9/1/1
f 11/1/1 8/1/1 10/1/1
f 15/1/1 11/1/1 10/1/1
f 15/1/1 12/1/1 11/1/1
f 16/1/1 12/1/1 15/1/1
f 18/2/1 14/2/1 13/2/1
f 19/1/1 12/1/1 16/1/1
f 21/1/1 19/1/1 16/1/1
f 21/1/1 20/1/1 19/1/1
f 22/1/1 20/1/1 21/1/1
f 23/1/1 20/1/1 22/1/1
f 26/2/1 18/2/1 17/2/1
f 27/2/1 14/2/1 18/2/1
f 27/2/1 18/2/1 26/2/1
f 28/2/1 14/2/1 27/2/1
f 29/1/1 24/1/1 23/1/1
f 29/1/1 23/1/1 22/1/1
f 30/1/1 24/1/1 29/1/1
f 31/1/1 24/1/1 30/1/1
f 32/2/1 26/2/1 25/2/1
f 32/2/1 27/2/1 26/2/1
f 33/1/1 31/1/1 30/1/1
f 33/1/1 32/1/1 31/1/1
f 34/2/1 27/2/1 32/2/1
f 34/1/1 32/1/1 33/1/1
f 35/2/1 27/2/1 34/2/1
f 36/2/1 27/2/1 35/2/1
f 38/2/1 34/2/1 33/2/1
f 38/2/1 35/2/1 34/2/1
f 39/2/1 35/2/1 38/2/1
f 40/2/1 35/2/1 39/2/1
f 42/2/1 38/2/1 37/2/1
f 42/2/1 39/2/1 38/2/1
f 43/2/1 39/2/1 42/2/1
f 44/2/1 39/2/1 43/2/1
f 45/2/1 42/2/1 41/2/1
f 45/2/1 43/2/1 42/2/1
f 46/2/1 43/2/1 45/2/1
f 47/2/1 43/2/1 46/2/1
f 48/2/1 43/2/1 47/2/1
f 49/2/1 47/2/1 46/2/1
f 50/2/1 47/2/1 49/2/1
f 51/1/2 52/1/2 53/1/2
f 51/1/2 53/1/2 55/1/2
f 53/1/2 54/1/2 55/1/2
f 55/1/2 54/1/2 56/1/2
f 56/1/2 54/1/2 57/1/2
f 57/1/2 58/1/2 59/1/2
f 56/1/2 57/1/2 59/1/2
f 59/1/2 58/1/2 60/1/2
f 60/1/2 58/1/2 61/1/2
f 60/1/2 61/1/2 65/1/2
f 61/1/2 62/1/2 65/1/2
f 65/1/2 62/1/2 66/1/2
f 63/2/2 64/2/2 68/2/2
f 66/1/2 62/1/2 69/1/2
f 66/1/2 69/1/2 71/1/2
f 69/1/2 70/1/2 71/1/2
f 71/1/2 70/1/2 72/1/2
f 72/1/2 70/1/2 73/1/2
f 67/2/2 68/2/2 76/2/2
f 68/2/2 64/2/2 77/2/2
f 76/2/2 68/2/2 77/2/2
f 77/2/2 64/2/2 78/2/2
f 73/1/2 74/1/2 79/1/2
f 72/1/2 73/1/2 79/1/2
f 79/1/2 74/1/2 80/1/2
f 80/1/2 74/1/2 81/1/2
f 75/2/2 76/2/2 82/2/2
f 76/2/2 77/2/2 82/2/2
f 80/1/2 81/1/2 83/1/2
f 81/1/2 82/1/2 83/1/2
f 82/2/2 77/2/2 84/2/2
f 83/1/2 82/1/2 84/1/2
f 84/2/2 77/2/2 85/2/2
f 85/2/2 77/2/2 86/2/2
f 83/2/2 84/2/2 88/2/2
f 84/2/2 85/2/2 88/2/2
f 88/2/2 85/2/2 89/2/2
f 89/2/2 85/2/2 90/2/2
f 87/2/2 88/2/2 92/2/2
f 88/2/2 89/2/2 92/2/2
f 92/2/2 89/2/2 93/2/2
f 93/2/2 89/2/2 94/2/2
f 91/2/2 92/2/2 95/2/2
f 92/2/2 93/2/2 95/2/2
f 95/2/2 93/2/2 96/2/2
f 96/2/2 93/2/2 97/2/2
f 97/2/2 93/2/2 98/2/2
f 96/2/2 97/2/2 99/2/2
f 99/2/2 97/2/2 100/2/2
f 103/1/3 102/1/3 101/1/3
f 104/1/3 102/1/3 103/1/3
f 107/1/3 106/1/3 105/1/3
f 108/1/3 106/1/3 107/1/3
f 113/1/3 110/1/3 109/1/3
f 114/1/3 110/1/3 113/1/3
f 115/2/3 112/2/3 111/2/3
f 116/2/3 112/2/3 115/2/3
f 121/1/3 118/1/3 117/1/3
f 122/1/3 118/1/3 121/1/3
f 123/2/3 120/2/3 119/2/3
f 124/2/3 120/2/3 123/2/3
f 129/1/3 126/1/3 125/1/3
f 130/1/3 126/1/3 129/1/3
f 131/2/3 128/2/3 127/2/3
f 132/2/3 128/2/3 131/2/3
f 136/1/3 134/1/3 133/1/3
f 137/2/3 135/2/3 134/2/3
f 137/1/3 134/1/3 136/1/3
f 138/2/3 135/2/3 137/2/3
f 141/2/3 140/2/3 139/2/3
f 142/2/3 140/2/3 141/2/3
f 145/2/3 144/2/3 143/2/3
f 146/2/3 144/2/3 145/2/3
f 149/2/3 148/2/3 147/2/3
f 150/2/3 148/2/3 149/2/3
f 151/1/4 152/1/4 153/1/4
f 153/1/4 152/1/4 154/1/4
f 155/1/4 156/1/4 157/1/4
f 157/1/4 156/1/4 158/1/4
f 159/1/4 160/1/4 161/1/4
f 161/1/4 160/1/4 162/1/4
f 163/1/4 164/1/4 165/1/4
f 165/1/4 164/1/4 166/1/4
f 167/1/4 168/1/4 171/1/4
f 171/1/4 168/1/4 172/1/4
f 169/2/4 170/2/4 173/2/4
f 173/2/4 170/2/4 174/2/4
f 175/1/4 176/1/4 179/1/4
f 179/1/4 176/1/4 180/1/4
f 177/2/4 178/2/4 181/2/4
f 181/2/4 178/2/4 182/2/4
f 183/2/4 184/2/4 185/2/4
f 185/2/4 184/2/4 186/2/4
f 187/2/4 188/2/4 189/2/4
f 189/2/4 188/2/4 190/2/4
f 191/2/4 192/2/4 193/2/4
f 193/2/4 192/2/4 194/2/4
f 195/2/4 196/2/4 197/2/4
f 197/2/4 196/2/4 198/2/4
f 201/1/5 200/1/5 199/1/5
f 202/1/5 200/1/5 201/1/5
f 205/1/5 204/1/5 203/1/5
f 206/1/5 204/1/5 205/1/5
f 209/1/5 208/1/5 207/1/5
f 210/1/5 208/1/5 209/1/5
f 213/1/5 212/1/5 211/1/5
f 214/1/5 212/1/5 213/1/5
f 217/2/5 216/2/5 215/2/5
f 218/2/5 216/2/5 217/2/5
f 221/2/5 220/2/5 219/2/5
f 222/2/5 220/2/5 221/2/5
f 225/1/5 224/1/5 223/1/5
f 226/1/5 224/1/5 225/1/5
f 229/1/5 228/1/5 227/1/5
f 230/1/5 228/1/5 229/1/5
f 233/2/5 232/2/5 231/2/5
f 234/2/5 232/2/5 233/2/5
f 237/1/5 236/1/5 235/1/5
f 238/1/5 236/1/5 237/1/5
f 241/2/5 240/2/5 239/2/5
f 242/2/5 240/2/5 241/2/5
f 245/2/5 244/2/5 243/2/5
f 246/2/5 244/2/5 245/2/5
f 247/1/6 248/1/6 249/1/6
f 249/1/6 248/1/6 250/1/6
f 251/1/6 252/1/6 253/1/6
f 253/1/6 252/1/6 254/1/6
f 255/1/6 256/1/6 257/1/6
f 257/1/6 256/1/6 258/1/6
f 259/1/6 260/1/6 261/1/6
f 261/1/6 260/1/6 262/1/6
f 263/2/6 264/2/6 265/2/6
f 265/2/6 264/2/6 266/2/6
f 267/1/6 268/1/6 269/1/6
f 269/1/6 268/1/6 270/1/6
f 271/2/6 272/2/6 273/2/6
f 273/2/6 272/2/6 274/2/6
f 275/2/6 276/2/6 277/2/6
f 277/2/6 276/2/6 278/2/6
f 279/2/6 280/2/6 281/2/6
f 281/2/6 280/2/6 282/2/6
f 283/2/6 284/2/6 285/2/6
f 285/2/6 284/2/6 286/2/6
f 287/2/6 288/2/6 289/2/6
f 289/2/6 288/2/6 290/2/6
f 291/2/6 292/2/6 293/2/6
f 293/2/6 292/2/6 294/2/6
