# MagicaVoxel @ Ephtracy

# group
o 

# material
mtllib Sword.mtl
usemtl palette

# normals
vn -1 0 0
vn 1 0 0
vn 0 0 1
vn 0 0 -1
vn 0 -1 0
vn 0 1 0

# texcoords
vt 0.857422 0.5
vt 0.986328 0.5

# verts
v -0.7 0 0.3
v -0.7 0 0.2
v -0.7 0.1 0.3
v -0.7 0.1 0.2
v -0.6 0.1 0.3
v -0.6 0.1 0.2
v -0.6 0.2 0.3
v -0.6 0.2 0.2
v -0.5 0.2 0.3
v -0.5 0.2 0.2
v -0.5 0.3 0.3
v -0.5 0.3 0.2
v -0.4 0.3 0.3
v -0.4 0.3 0.2
v -0.4 0.4 0.3
v -0.4 0.4 0.2
v -0.3 0.4 0.3
v -0.3 0.4 0.2
v -0.3 0.5 0.3
v -0.3 0.5 0.2
v -0.2 0.5 0.3
v -0.2 0.5 0.2
v -0.2 0.6 0.3
v -0.2 0.6 0.2
v -0.1 0.6 0.3
v -0.1 0.6 0.2
v -0.1 0.7 0.3
v -0.1 0.7 0.2
v 5.96046e-08 0.7 0.3
v 5.96046e-08 0.7 0.2
v 5.96046e-08 0.9 0.3
v 5.96046e-08 0.9 0.2
v 0.2 0.9 0.3
v 0.2 0.9 0.2
v 0.2 1 0.3
v 0.2 1 0.2
v 0.3 1 0.3
v 0.3 1 0.2
v 0.3 1.1 0.3
v 0.3 1.1 0.2
v 0.4 1.1 0.3
v 0.4 1.1 0.2
v 0.4 1.2 0.3
v 0.4 1.2 0.2
v 0.5 1.2 0.3
v 0.5 1.2 0.2
v 0.5 1.3 0.3
v 0.5 1.3 0.2
v 0.6 1.3 0.3
v 0.6 1.3 0.2
v 0.6 1.4 0.3
v 0.6 1.4 0.2
v -0.5 0 0.3
v -0.5 0 0.2
v -0.5 0.1 0.3
v -0.5 0.1 0.2
v -0.4 0.1 0.3
v -0.4 0.1 0.2
v -0.4 0.2 0.3
v -0.4 0.2 0.2
v -0.3 0.2 0.3
v -0.3 0.2 0.2
v -0.3 0.3 0.3
v -0.3 0.3 0.2
v -0.2 0.3 0.3
v -0.2 0.3 0.2
v -0.2 0.4 0.3
v -0.2 0.4 0.2
v -0.1 0.4 0.3
v -0.1 0.4 0.2
v -0.1 0.5 0.3
v -0.1 0.5 0.2
v 0.1 0.5 0.3
v 0.1 0.5 0.2
v 0.1 0.6 0.3
v 0.1 0.6 0.2
v 0.3 0.6 0.3
v 0.3 0.6 0.2
v 0.3 0.8 0.3
v 0.3 0.8 0.2
v 0.4 0.8 0.3
v 0.4 0.8 0.2
v 0.4 0.9 0.3
v 0.4 0.9 0.2
v 0.5 0.9 0.3
v 0.5 0.9 0.2
v 0.5 1 0.3
v 0.5 1 0.2
v 0.6 1 0.3
v 0.6 1 0.2
v 0.6 1.1 0.3
v 0.6 1.1 0.2
v 0.7 1.1 0.3
v 0.7 1.1 0.2
v 0.7 1.2 0.3
v 0.7 1.2 0.2
v 0.8 1.2 0.3
v 0.8 1.2 0.2
v 0.8 1.4 0.3
v 0.8 1.4 0.2
v -0.7 0 0.3
v -0.7 0.1 0.3
v -0.6 0.1 0.3
v -0.6 0.2 0.3
v -0.5 0 0.3
v -0.5 0.1 0.3
v -0.5 0.2 0.3
v -0.5 0.3 0.3
v -0.4 0.1 0.3
v -0.4 0.2 0.3
v -0.4 0.3 0.3
v -0.4 0.4 0.3
v -0.3 0.2 0.3
v -0.3 0.3 0.3
v -0.3 0.4 0.3
v -0.3 0.5 0.3
v -0.2 0.3 0.3
v -0.2 0.4 0.3
v -0.2 0.5 0.3
v -0.2 0.6 0.3
v -0.1 0.4 0.3
v -0.1 0.5 0.3
v -0.1 0.6 0.3
v -0.1 0.7 0.3
v 5.96046e-08 0.6 0.3
v 5.96046e-08 0.7 0.3
v 5.96046e-08 0.9 0.3
v 0.1 0.5 0.3
v 0.1 0.6 0.3
v 0.2 0.9 0.3
v 0.2 1 0.3
v 0.3 0.6 0.3
v 0.3 0.8 0.3
v 0.3 1 0.3
v 0.3 1.1 0.3
v 0.4 0.8 0.3
v 0.4 0.9 0.3
v 0.4 1.1 0.3
v 0.4 1.2 0.3
v 0.5 0.9 0.3
v 0.5 1 0.3
v 0.5 1.2 0.3
v 0.5 1.3 0.3
v 0.6 1 0.3
v 0.6 1.1 0.3
v 0.6 1.3 0.3
v 0.6 1.4 0.3
v 0.7 1.1 0.3
v 0.7 1.2 0.3
v 0.8 1.2 0.3
v 0.8 1.4 0.3
v -0.7 0 0.2
v -0.7 0.1 0.2
v -0.6 0.1 0.2
v -0.6 0.2 0.2
v -0.5 0 0.2
v -0.5 0.1 0.2
v -0.5 0.2 0.2
v -0.5 0.3 0.2
v -0.4 0.1 0.2
v -0.4 0.2 0.2
v -0.4 0.3 0.2
v -0.4 0.4 0.2
v -0.3 0.2 0.2
v -0.3 0.3 0.2
v -0.3 0.4 0.2
v -0.3 0.5 0.2
v -0.2 0.3 0.2
v -0.2 0.4 0.2
v -0.2 0.5 0.2
v -0.2 0.6 0.2
v -0.1 0.4 0.2
v -0.1 0.5 0.2
v -0.1 0.6 0.2
v -0.1 0.7 0.2
v 5.96046e-08 0.6 0.2
v 5.96046e-08 0.7 0.2
v 5.96046e-08 0.9 0.2
v 0.1 0.5 0.2
v 0.1 0.6 0.2
v 0.2 0.9 0.2
v 0.2 1 0.2
v 0.3 0.6 0.2
v 0.3 0.8 0.2
v 0.3 1 0.2
v 0.3 1.1 0.2
v 0.4 0.8 0.2
v 0.4 0.9 0.2
v 0.4 1.1 0.2
v 0.4 1.2 0.2
v 0.5 0.9 0.2
v 0.5 1 0.2
v 0.5 1.2 0.2
v 0.5 1.3 0.2
v 0.6 1 0.2
v 0.6 1.1 0.2
v 0.6 1.3 0.2
v 0.6 1.4 0.2
v 0.7 1.1 0.2
v 0.7 1.2 0.2
v 0.8 1.2 0.2
v 0.8 1.4 0.2
v -0.7 0 0.3
v -0.5 0 0.3
v -0.7 0 0.2
v -0.5 0 0.2
v -0.5 0.1 0.3
v -0.4 0.1 0.3
v -0.5 0.1 0.2
v -0.4 0.1 0.2
v -0.4 0.2 0.3
v -0.3 0.2 0.3
v -0.4 0.2 0.2
v -0.3 0.2 0.2
v -0.3 0.3 0.3
v -0.2 0.3 0.3
v -0.3 0.3 0.2
v -0.2 0.3 0.2
v -0.2 0.4 0.3
v -0.1 0.4 0.3
v -0.2 0.4 0.2
v -0.1 0.4 0.2
v -0.1 0.5 0.3
v 0.1 0.5 0.3
v -0.1 0.5 0.2
v 0.1 0.5 0.2
v 0.1 0.6 0.3
v 0.3 0.6 0.3
v 0.1 0.6 0.2
v 0.3 0.6 0.2
v 0.3 0.8 0.3
v 0.4 0.8 0.3
v 0.3 0.8 0.2
v 0.4 0.8 0.2
v 0.4 0.9 0.3
v 0.5 0.9 0.3
v 0.4 0.9 0.2
v 0.5 0.9 0.2
v 0.5 1 0.3
v 0.6 1 0.3
v 0.5 1 0.2
v 0.6 1 0.2
v 0.6 1.1 0.3
v 0.7 1.1 0.3
v 0.6 1.1 0.2
v 0.7 1.1 0.2
v 0.7 1.2 0.3
v 0.8 1.2 0.3
v 0.7 1.2 0.2
v 0.8 1.2 0.2
v -0.7 0.1 0.3
v -0.6 0.1 0.3
v -0.7 0.1 0.2
v -0.6 0.1 0.2
v -0.6 0.2 0.3
v -0.5 0.2 0.3
v -0.6 0.2 0.2
v -0.5 0.2 0.2
v -0.5 0.3 0.3
v -0.4 0.3 0.3
v -0.5 0.3 0.2
v -0.4 0.3 0.2
v -0.4 0.4 0.3
v -0.3 0.4 0.3
v -0.4 0.4 0.2
v -0.3 0.4 0.2
v -0.3 0.5 0.3
v -0.2 0.5 0.3
v -0.3 0.5 0.2
v -0.2 0.5 0.2
v -0.2 0.6 0.3
v -0.1 0.6 0.3
v -0.2 0.6 0.2
v -0.1 0.6 0.2
v -0.1 0.7 0.3
v 5.96046e-08 0.7 0.3
v -0.1 0.7 0.2
v 5.96046e-08 0.7 0.2
v 5.96046e-08 0.9 0.3
v 0.2 0.9 0.3
v 5.96046e-08 0.9 0.2
v 0.2 0.9 0.2
v 0.2 1 0.3
v 0.3 1 0.3
v 0.2 1 0.2
v 0.3 1 0.2
v 0.3 1.1 0.3
v 0.4 1.1 0.3
v 0.3 1.1 0.2
v 0.4 1.1 0.2
v 0.4 1.2 0.3
v 0.5 1.2 0.3
v 0.4 1.2 0.2
v 0.5 1.2 0.2
v 0.5 1.3 0.3
v 0.6 1.3 0.3
v 0.5 1.3 0.2
v 0.6 1.3 0.2
v 0.6 1.4 0.3
v 0.8 1.4 0.3
v 0.6 1.4 0.2
v 0.8 1.4 0.2

# faces
f 3/1/1 2/1/1 1/1/1
f 4/1/1 2/1/1 3/1/1
f 7/1/1 6/1/1 5/1/1
f 8/1/1 6/1/1 7/1/1
f 11/1/1 10/1/1 9/1/1
f 12/1/1 10/1/1 11/1/1
f 15/1/1 14/1/1 13/1/1
f 16/1/1 14/1/1 15/1/1
f 19/1/1 18/1/1 17/1/1
f 20/1/1 18/1/1 19/1/1
f 23/1/1 22/1/1 21/1/1
f 24/1/1 22/1/1 23/1/1
f 27/1/1 26/1/1 25/1/1
f 28/1/1 26/1/1 27/1/1
f 31/2/1 30/2/1 29/2/1
f 32/2/1 30/2/1 31/2/1
f 35/2/1 34/2/1 33/2/1
f 36/2/1 34/2/1 35/2/1
f 39/2/1 38/2/1 37/2/1
f 40/2/1 38/2/1 39/2/1
f 43/2/1 42/2/1 41/2/1
f 44/2/1 42/2/1 43/2/1
f 47/2/1 46/2/1 45/2/1
f 48/2/1 46/2/1 47/2/1
f 51/2/1 50/2/1 49/2/1
f 52/2/1 50/2/1 51/2/1
f 53/1/2 54/1/2 55/1/2
f 55/1/2 54/1/2 56/1/2
f 57/1/2 58/1/2 59/1/2
f 59/1/2 58/1/2 60/1/2
f 61/1/2 62/1/2 63/1/2
f 63/1/2 62/1/2 64/1/2
f 65/1/2 66/1/2 67/1/2
f 67/1/2 66/1/2 68/1/2
f 69/1/2 70/1/2 71/1/2
f 71/1/2 70/1/2 72/1/2
f 73/1/2 74/1/2 75/1/2
f 75/1/2 74/1/2 76/1/2
f 77/2/2 78/2/2 79/2/2
f 79/2/2 78/2/2 80/2/2
f 81/2/2 82/2/2 83/2/2
f 83/2/2 82/2/2 84/2/2
f 85/2/2 86/2/2 87/2/2
f 87/2/2 86/2/2 88/2/2
f 89/2/2 90/2/2 91/2/2
f 91/2/2 90/2/2 92/2/2
f 93/2/2 94/2/2 95/2/2
f 95/2/2 94/2/2 96/2/2
f 97/2/2 98/2/2 99/2/2
f 99/2/2 98/2/2 100/2/2
f 103/1/3 102/1/3 101/1/3
f 105/1/3 103/1/3 101/1/3
f 105/1/3 104/1/3 103/1/3
f 106/1/3 104/1/3 105/1/3
f 107/1/3 104/1/3 106/1/3
f 109/1/3 108/1/3 107/1/3
f 109/1/3 107/1/3 106/1/3
f 110/1/3 108/1/3 109/1/3
f 111/1/3 108/1/3 110/1/3
f 113/1/3 112/1/3 111/1/3
f 113/1/3 111/1/3 110/1/3
f 114/1/3 112/1/3 113/1/3
f 115/1/3 112/1/3 114/1/3
f 117/1/3 116/1/3 115/1/3
f 117/1/3 115/1/3 114/1/3
f 118/1/3 116/1/3 117/1/3
f 119/1/3 116/1/3 118/1/3
f 121/1/3 120/1/3 119/1/3
f 121/1/3 119/1/3 118/1/3
f 122/1/3 120/1/3 121/1/3
f 123/1/3 120/1/3 122/1/3
f 125/1/3 124/1/3 123/1/3
f 125/1/3 123/1/3 122/1/3
f 126/1/3 124/1/3 125/1/3
f 128/1/3 125/1/3 122/1/3
f 129/2/3 127/2/3 126/2/3
f 129/1/3 125/1/3 128/1/3
f 129/2/3 126/2/3 125/2/3
f 130/2/3 127/2/3 129/2/3
f 132/2/3 130/2/3 129/2/3
f 132/2/3 131/2/3 130/2/3
f 133/2/3 131/2/3 132/2/3
f 134/2/3 131/2/3 133/2/3
f 136/2/3 135/2/3 134/2/3
f 136/2/3 134/2/3 133/2/3
f 137/2/3 135/2/3 136/2/3
f 138/2/3 135/2/3 137/2/3
f 140/2/3 139/2/3 138/2/3
f 140/2/3 138/2/3 137/2/3
f 141/2/3 139/2/3 140/2/3
f 142/2/3 139/2/3 141/2/3
f 144/2/3 143/2/3 142/2/3
f 144/2/3 142/2/3 141/2/3
f 145/2/3 143/2/3 144/2/3
f 146/2/3 143/2/3 145/2/3
f 148/2/3 147/2/3 146/2/3
f 148/2/3 146/2/3 145/2/3
f 149/2/3 147/2/3 148/2/3
f 150/2/3 147/2/3 149/2/3
f 151/2/3 147/2/3 150/2/3
f 152/1/4 153/1/4 154/1/4
f 152/1/4 154/1/4 156/1/4
f 154/1/4 155/1/4 156/1/4
f 156/1/4 155/1/4 157/1/4
f 157/1/4 155/1/4 158/1/4
f 158/1/4 159/1/4 160/1/4
f 157/1/4 158/1/4 160/1/4
f 160/1/4 159/1/4 161/1/4
f 161/1/4 159/1/4 162/1/4
f 162/1/4 163/1/4 164/1/4
f 161/1/4 162/1/4 164/1/4
f 164/1/4 163/1/4 165/1/4
f 165/1/4 163/1/4 166/1/4
f 166/1/4 167/1/4 168/1/4
f 165/1/4 166/1/4 168/1/4
f 168/1/4 167/1/4 169/1/4
f 169/1/4 167/1/4 170/1/4
f 170/1/4 171/1/4 172/1/4
f 169/1/4 170/1/4 172/1/4
f 172/1/4 171/1/4 173/1/4
f 173/1/4 171/1/4 174/1/4
f 174/1/4 175/1/4 176/1/4
f 173/1/4 174/1/4 176/1/4
f 176/1/4 175/1/4 177/1/4
f 173/1/4 176/1/4 179/1/4
f 177/2/4 178/2/4 180/2/4
f 179/1/4 176/1/4 180/1/4
f 176/2/4 177/2/4 180/2/4
f 180/2/4 178/2/4 181/2/4
f 180/2/4 181/2/4 183/2/4
f 181/2/4 182/2/4 183/2/4
f 183/2/4 182/2/4 184/2/4
f 184/2/4 182/2/4 185/2/4
f 185/2/4 186/2/4 187/2/4
f 184/2/4 185/2/4 187/2/4
f 187/2/4 186/2/4 188/2/4
f 188/2/4 186/2/4 189/2/4
f 189/2/4 190/2/4 191/2/4
f 188/2/4 189/2/4 191/2/4
f 191/2/4 190/2/4 192/2/4
f 192/2/4 190/2/4 193/2/4
f 193/2/4 194/2/4 195/2/4
f 192/2/4 193/2/4 195/2/4
f 195/2/4 194/2/4 196/2/4
f 196/2/4 194/2/4 197/2/4
f 197/2/4 198/2/4 199/2/4
f 196/2/4 197/2/4 199/2/4
f 199/2/4 198/2/4 200/2/4
f 200/2/4 198/2/4 201/2/4
f 201/2/4 198/2/4 202/2/4
f 205/1/5 204/1/5 203/1/5
f 206/1/5 204/1/5 205/1/5
f 209/1/5 208/1/5 207/1/5
f 210/1/5 208/1/5 209/1/5
f 213/1/5 212/1/5 211/1/5
f 214/1/5 212/1/5 213/1/5
f 217/1/5 216/1/5 215/1/5
f 218/1/5 216/1/5 217/1/5
f 221/1/5 220/1/5 219/1/5
f 222/1/5 220/1/5 221/1/5
f 225/1/5 224/1/5 223/1/5
f 226/1/5 224/1/5 225/1/5
f 229/2/5 228/2/5 227/2/5
f 230/2/5 228/2/5 229/2/5
f 233/2/5 232/2/5 231/2/5
f 234/2/5 232/2/5 233/2/5
f 237/2/5 236/2/5 235/2/5
f 238/2/5 236/2/5 237/2/5
f 241/2/5 240/2/5 239/2/5
f 242/2/5 240/2/5 241/2/5
f 245/2/5 244/2/5 243/2/5
f 246/2/5 244/2/5 245/2/5
f 249/2/5 248/2/5 247/2/5
f 250/2/5 248/2/5 249/2/5
f 251/1/6 252/1/6 253/1/6
f 253/1/6 252/1/6 254/1/6
f 255/1/6 256/1/6 257/1/6
f 257/1/6 256/1/6 258/1/6
f 259/1/6 260/1/6 261/1/6
f 261/1/6 260/1/6 262/1/6
f 263/1/6 264/1/6 265/1/6
f 265/1/6 264/1/6 266/1/6
f 267/1/6 268/1/6 269/1/6
f 269/1/6 268/1/6 270/1/6
f 271/1/6 272/1/6 273/1/6
f 273/1/6 272/1/6 274/1/6
f 275/1/6 276/1/6 277/1/6
f 277/1/6 276/1/6 278/1/6
f 279/2/6 280/2/6 281/2/6
f 281/2/6 280/2/6 282/2/6
f 283/2/6 284/2/6 285/2/6
f 285/2/6 284/2/6 286/2/6
f 287/2/6 288/2/6 289/2/6
f 289/2/6 288/2/6 290/2/6
f 291/2/6 292/2/6 293/2/6
f 293/2/6 292/2/6 294/2/6
f 295/2/6 296/2/6 297/2/6
f 297/2/6 296/2/6 298/2/6
f 299/2/6 300/2/6 301/2/6
f 301/2/6 300/2/6 302/2/6
